<mxfile host="app.diagrams.net" modified="2024-06-04T16:14:37.190Z" agent="Mozilla/5.0 (X11; Linux x86_64) AppleWebKit/537.36 (KHTML, like Gecko) Chrome/124.0.0.0 Safari/537.36" etag="_Rak6cTqfJVuxEWNlW4E" version="24.4.0" type="device">
  <diagram name="Page-1" id="z6Y7CCpm-JCqk-hzNsWw">
    <mxGraphModel dx="1434" dy="786" grid="1" gridSize="10" guides="1" tooltips="1" connect="1" arrows="1" fold="1" page="1" pageScale="1" pageWidth="850" pageHeight="1100" math="0" shadow="0">
      <root>
        <mxCell id="0" />
        <mxCell id="1" parent="0" />
        <mxCell id="Y49z8xyqxoSdH-bz4BjA-4" value="" style="whiteSpace=wrap;html=1;aspect=fixed;fillColor=#d5e8d4;strokeColor=#82b366;" vertex="1" parent="1">
          <mxGeometry x="460" y="200" width="80" height="80" as="geometry" />
        </mxCell>
        <mxCell id="Y49z8xyqxoSdH-bz4BjA-30" value="" style="shape=image;verticalLabelPosition=bottom;labelBackgroundColor=default;verticalAlign=top;aspect=fixed;imageAspect=0;image=data:image/png,iVBORw0KGgoAAAANSUhEUgAAAGQAAABkCAYAAABw4pVUAAAAAXNSR0IArs4c6QAADIFJREFUeAHtnXtwE8cdxzekSdokTaFN82g7aYZS0DmPJqGTPphSks5kEpJpZ9rJdCbTSaf5g8m006ayMdiyDAIDeoGNsTE2EALGtox5S8YY27Lklx5GOhFjyySEJBAICQVCkvIw2P519vDR9elOuodkSWd55mb39k7a3e9Hv93f7u2eEcr8ZRTIKJBRIKNARoGMAhkFMgpkFMgokFEgo0BGgYwCGQWSosD25sDDtY2+2TsO9MzFYZ3Do6ltPDy9trFrWkOD696kFGqyZbrXFZpqc3gNNrvnfZvDCzEPu+e/Nrv3os3uOWFzeAfr7Z6AzeF12xp7WmwOX0Pdfm+NzeEttTm8/6pv7Hl8sumpqL7tvsE/uX3hS7sO9sYGIQYWzz21Dm9vnd3zW0UFnQwfdnnC/+jwDw539B6Dtp6BhAHBFldn94zW270Fk0FXWXVs6+7/KwsDA8HHnkOBhEIp27IPLOU1y2QVWM0faukaeNXtP3adBcGGTe4jCQOCYawqeQcfI9byul+pWV9JdTvUPfCS2x++xkIgw5auo+Chj0P4gzPg9g/GDc76d/azMJjQtHZbh6RCq/XmFm//nA7/4NckBDJ++rOLQP556eOKoVRsc4yDwVrJ2qqGR9Sqs6h6OT1HnnX7w1+SAMj46bMXSBZM/Oy5S4qAbOCHwQCyltX8RVTB1XjTgY6+J9y+wQskADJ+8vR/ImDghA9PnZMNpHL7AT7LuJVmLNtuUKPWMevU1tU33e0bPEsCIOMnTn3OC+PylSHY1xqUBaSqpumW8GNNVMS5sWx7cczCq+0Gp+e9H7q94ZMkADL+3odneWFcG7oOB1zyPK6NtQcjxOeDYi6trlKb3lHr43AF7nf6wu+TAMj4sROfwuhoJI+h6zegubNPlmVsqmsWBQMDMq6rro5aATVdbOzqm+b0hMMkADI+8P5pGOWhcWN4BFp7+mXB2GxrgVVrt4oGYiqt3qUmzQXr4nAE7m73DgRJAGS879gpXhjDwyPg9MibPnm7vlU0jJXFW2C5dSMYzJXNgpVQy4WmpuN3Obv7u0kAZDwUPgnDI5Ht1MjIKHTIHAhu2dEmCgYGUbCiDBYWmCFbZ4RcvdWjFt1569HQ0HB7qyd8iARAxun+jwBbAfcPN11dh9+T1UxhGMbSbTGbqaLVm2Ch3sKAwDDwkaO3hngrooZEALittbt/NwmAjHf2HoOr165zWTCdujckbzT+zs52UTBWrHn7llWwMHC4sNASVoP2EXXAMFq6+m0kAG7cFzoeAQMnHO77UJZlbN3ZDqbS6piWgb2pxUuLx1kGCyWnwPJRRGXUkNDSfbSSC4B7ji3k8tWhcVBC4Y/lwdjlEg1jmaWKFwYDpcB0Vg36j6vDwe6+Yq74Quet3Ufh5JnzcO7CV+ALfSALxrbdbjCtE2cZ2DoKitYJAskpMH0xrjLpfnKoo1+PPSMhAGS6w0nLAkA+W6/e3QHmsu2imil2ZC7UXN20EOOVdGdwq/wtXUffcvsHR0nRheKNMqdAxsHY0ykZBoayaMlqQQvR5htHblUonSPNnUfedPvComAcdL+r2DK27+0ES1mNJMtgLSQaEGwlxcXF30pnFqi5o+81t+/mogQhi2DTD8mcjyItg4FRXisLBoYStcnSGUG3suThtAXS3Nn3B5dvMOI5OAuADFu7+6G+UcT6Kp4lOyyQmr1dYFEAAwPJM/C7vKzrazBWTE9LIHZn8HmXf/AKKbpQHC/n2dHoU9RU1ezrBmtFnWzLwDCEBoQsDBwuNlV9J+2ANLX3z2n3DFwWAkCm48nBHQf8KQEjVv+RrTN9nXYw7M7AM+2eAcHn4CSMdm8YGpqUwajd3wNrNtQrsgw8ibh46RpB74q1kNxCizOlgAA96wcQot6CkGYL0LOqIaRZCgHNE2whG1uDlLNnQPA5OAnD7RsEpUtB4wUjVr/BAlm8vPQ1tq5JDQHQbUBTeqCpq0BTMO4IUqNAZ9Uedm1+3Nkz8BkpulAcr5/a3XxYUTNVZ++B4sodiiwD9xv5y0piWgYGsrDQTCcVApk50Fll4yBwodAUfBl4+WqXLxhzFO7yheMAwwMlG3cqhqFbXioKRrbOdLHIUvUTUpOkxSFEzY8Fg71+sXc+tHZ4ADdHEdbhH4SDHe9Cg8IOvM4eHxj4wRPbFEULtfmmy4Wr1qXOKnigKRcruJjwov8F2NvUBnsOHYb9bUGwt9GwtyUA9QrdWjzWwDBKN+1SbBmFK8tFwjBezS9a+0rSrIGbMRyfcRfQmhtiQJD3YCh7DrQq6iPYwR4bMjA271YMY6mxQhwMnWlokWH1H7maJPWc8ap4+gtSfKF4vKGUvb1XMQyDqVIUjH/nG2/kGta8nlTx+TKHwOy7gfGiOJ6VSEjxgkJsC5ANZZm5CnJ0pphA8IzuIkPxm3x6pEQaBDW9QlYgJl0pFO62AOyqSj3wEp6csZUj0Ttw48iiJdbclBBeqBBAU6+LET7aPV8wfUqL5D5l/Va7ZPG5sJZbN/EuWOADk1uwOvV3SjGDwoBmZzTBxVyTCkVgj4YkQEWrN0cs5eEDgdPylhSnz0Jqpi+hNU4xwke7RyyUWNsCuFbAd45nbnM566qEYGQbrBuFWoiUTZ8oKGK2BfABINMYGIXWmB04BpSjt9SlrOixCpZoKGK3BZDic+NiZ24ZGDrLfoPBMCVWvVP6eqKgSNkWwIXAnmMYYmduc/JNrQsWLLgjpcUWW7h4Q5G6LYAFwA3FztzmFFj8Wm2aL1bgwooXlAve30HJ+gpJ3hMXBD4XO3ObU2Ci/24wqPOFNPGC8nnnXCgplw8l2mpD0rNaWGAO5+UZp3F/XKo6TzYUvchp9Gyd6USuwfKQqsQXqgwDpXemP9oYRMw1qZayZNV6Ua6tVmf+JM9Q8qhQ+VWXDuvRU1Ax5QK4Hhn/eFfkJCQJSywUg1nczG12vulTfdG61HjaNxHkGRjl6DyUI4CKKTARULB7y24zI/sIblyrM57XLjbdWoQxEXokNY9xMDCQCYIi5omfVme6tLDQ+oukCjSRmfPCmCAosdZQafOMl/MM1ucnUo+k5hUVxgRAifFs41q2fs3vkyrQRGYuCkaCoXD7CvZcm28cyl1ifHUi9UhqXpJgJBAKX4euzTcOa/XmvyVVoERkDsHHXgRaUwk01QBBygLBWU/ifGAdehrK0QWm42bFFhvG2fvKM4xfbYifg+foLf9MhB5J+04YyLoT+J4MBqkR6JpeDqxrKxYC9744QjGt/v8eDm3+qtFsvVl9bw6FEFVMDtAi4o4Hbrq1XKGlnMcRypKiFcwoPUdvtiTtV5yojCH01FQIaoYiIHBH2vGAsmEKQMejkYu2uXnFOP+kfS6sXLF0Q6I0Ser3wpFZz8WEwQqkFEoZ+hhq7s2SukSVt3xByg2ued9IqniJyBxCmnm8FWYhcEO5UDCMDYiZ5IN3n7wnLlDorNRd1CYXFvhm3Me794MLgjyXCoWAwZYzTlP3Qfb7VBVCaJZZkpVgOGKh8MBgxVNsKXip60DWnez3qSaEwOw7IEQ54g4lCgxWPMVQBh77LvtdqgqZsQit2S8ZSuOD/C6xCBisgLKhBKmv8OpK9ntUF8YNigQYrIiyoAQ0O9nPqzZUDEUGDFZMiVCGIUA9w35W1SGze0pOn9L44CXWtZUr0E0oMdYS4848RL0lN4+0/JxsKEHqz0orzFhpUGMVmEE4A6GsyTPNToopE0rcXhYJvVkPAZ31BtDUcqCpQghqXgHXo98kyzjp4rKgqNUVTRX6kqEEZt6fKmVXbTnEQ9EcV60IqVYxcVCy3ki1cqu6PIwHFKDqeEf0QUp9D4zShSYc0bwAQWoj0Fl25gU1R7KeTZeyZ8oZWwH8oAnv28DbBR5ECP0IIYT/Kxpel8t3/HjsOl7R/j2E0LcRQuqb9Y2tm+I78Day74+JjKc9foMQegEhhF/yEo/jJYQQfnvPzxFCsxBCGFh6v9pVseSRX4AFmYkQmoMQejlOwkuFNw8h9BhCaGpk8SZPCm5CsBUkC4IQNPzDuG/yYLhZ09sRQnjBs5AoyU6fP9mg4PmmVLMM7o8gfd9SLdO8cYVfTEErwT8U3OGr90ljFGC4H5mBEHouBcBgb+7xMfc6SpEnz6V7EGLWZT095pomuknDfRh2f3865l1NSouQ8vPC7xnBA7oHxkBpEEJ4T+BshNAvx8YoeJyCXVYsLj6wpeE0fPx6TPCfIYQohBB+UT4ed+D3s6vjtRlS1Mzcm1Ego0BGgfgo8D+KzRxNnxDG1wAAAABJRU5ErkJggg==;" vertex="1" parent="1">
          <mxGeometry x="457.5" y="200" width="80" height="80" as="geometry" />
        </mxCell>
        <mxCell id="Y49z8xyqxoSdH-bz4BjA-1" value="" style="whiteSpace=wrap;html=1;aspect=fixed;fillColor=#d5e8d4;strokeColor=#82b366;" vertex="1" parent="1">
          <mxGeometry x="300" y="280" width="80" height="80" as="geometry" />
        </mxCell>
        <mxCell id="Y49z8xyqxoSdH-bz4BjA-2" value="" style="whiteSpace=wrap;html=1;aspect=fixed;fillColor=#d5e8d4;strokeColor=#82b366;" vertex="1" parent="1">
          <mxGeometry x="220" y="280" width="80" height="80" as="geometry" />
        </mxCell>
        <mxCell id="Y49z8xyqxoSdH-bz4BjA-3" value="" style="whiteSpace=wrap;html=1;aspect=fixed;fillColor=#f8cecc;strokeColor=#b85450;" vertex="1" parent="1">
          <mxGeometry x="540" y="200" width="80" height="80" as="geometry" />
        </mxCell>
        <mxCell id="Y49z8xyqxoSdH-bz4BjA-5" value="" style="whiteSpace=wrap;html=1;aspect=fixed;fillColor=#d5e8d4;strokeColor=#82b366;" vertex="1" parent="1">
          <mxGeometry x="380" y="200" width="80" height="80" as="geometry" />
        </mxCell>
        <mxCell id="Y49z8xyqxoSdH-bz4BjA-6" value="" style="whiteSpace=wrap;html=1;aspect=fixed;fillColor=#d5e8d4;strokeColor=#82b366;" vertex="1" parent="1">
          <mxGeometry x="300" y="200" width="80" height="80" as="geometry" />
        </mxCell>
        <mxCell id="Y49z8xyqxoSdH-bz4BjA-7" value="" style="whiteSpace=wrap;html=1;aspect=fixed;fillColor=#d5e8d4;strokeColor=#82b366;" vertex="1" parent="1">
          <mxGeometry x="220" y="200" width="80" height="80" as="geometry" />
        </mxCell>
        <mxCell id="Y49z8xyqxoSdH-bz4BjA-8" value="" style="whiteSpace=wrap;html=1;aspect=fixed;fillColor=#d5e8d4;strokeColor=#82b366;" vertex="1" parent="1">
          <mxGeometry x="380" y="280" width="80" height="80" as="geometry" />
        </mxCell>
        <mxCell id="Y49z8xyqxoSdH-bz4BjA-9" value="" style="whiteSpace=wrap;html=1;aspect=fixed;fillColor=#f8cecc;strokeColor=#b85450;" vertex="1" parent="1">
          <mxGeometry x="460" y="280" width="80" height="80" as="geometry" />
        </mxCell>
        <mxCell id="Y49z8xyqxoSdH-bz4BjA-10" value="" style="whiteSpace=wrap;html=1;aspect=fixed;fillColor=#f8cecc;strokeColor=#b85450;" vertex="1" parent="1">
          <mxGeometry x="540" y="280" width="80" height="80" as="geometry" />
        </mxCell>
        <mxCell id="Y49z8xyqxoSdH-bz4BjA-11" value="" style="whiteSpace=wrap;html=1;aspect=fixed;fillColor=#d5e8d4;strokeColor=#82b366;" vertex="1" parent="1">
          <mxGeometry x="220" y="360" width="80" height="80" as="geometry" />
        </mxCell>
        <mxCell id="Y49z8xyqxoSdH-bz4BjA-12" value="" style="whiteSpace=wrap;html=1;aspect=fixed;fillColor=#f8cecc;strokeColor=#b85450;" vertex="1" parent="1">
          <mxGeometry x="300" y="360" width="80" height="80" as="geometry" />
        </mxCell>
        <mxCell id="Y49z8xyqxoSdH-bz4BjA-13" value="" style="whiteSpace=wrap;html=1;aspect=fixed;fillColor=#f8cecc;strokeColor=#b85450;" vertex="1" parent="1">
          <mxGeometry x="380" y="360" width="80" height="80" as="geometry" />
        </mxCell>
        <mxCell id="Y49z8xyqxoSdH-bz4BjA-14" value="" style="whiteSpace=wrap;html=1;aspect=fixed;fillColor=#f8cecc;strokeColor=#b85450;" vertex="1" parent="1">
          <mxGeometry x="460" y="360" width="80" height="80" as="geometry" />
        </mxCell>
        <mxCell id="Y49z8xyqxoSdH-bz4BjA-15" value="" style="whiteSpace=wrap;html=1;aspect=fixed;fillColor=#f8cecc;strokeColor=#b85450;" vertex="1" parent="1">
          <mxGeometry x="540" y="360" width="80" height="80" as="geometry" />
        </mxCell>
        <mxCell id="Y49z8xyqxoSdH-bz4BjA-16" value="" style="whiteSpace=wrap;html=1;aspect=fixed;fillColor=#d5e8d4;strokeColor=#82b366;" vertex="1" parent="1">
          <mxGeometry x="220" y="440" width="80" height="80" as="geometry" />
        </mxCell>
        <mxCell id="Y49z8xyqxoSdH-bz4BjA-17" value="" style="whiteSpace=wrap;html=1;aspect=fixed;fillColor=#f8cecc;strokeColor=#b85450;" vertex="1" parent="1">
          <mxGeometry x="300" y="440" width="80" height="80" as="geometry" />
        </mxCell>
        <mxCell id="Y49z8xyqxoSdH-bz4BjA-18" value="" style="whiteSpace=wrap;html=1;aspect=fixed;fillColor=#f8cecc;strokeColor=#b85450;" vertex="1" parent="1">
          <mxGeometry x="380" y="440" width="80" height="80" as="geometry" />
        </mxCell>
        <mxCell id="Y49z8xyqxoSdH-bz4BjA-19" value="" style="whiteSpace=wrap;html=1;aspect=fixed;fillColor=#f8cecc;strokeColor=#b85450;" vertex="1" parent="1">
          <mxGeometry x="460" y="440" width="80" height="80" as="geometry" />
        </mxCell>
        <mxCell id="Y49z8xyqxoSdH-bz4BjA-20" value="" style="whiteSpace=wrap;html=1;aspect=fixed;fillColor=#f8cecc;strokeColor=#b85450;" vertex="1" parent="1">
          <mxGeometry x="540" y="440" width="80" height="80" as="geometry" />
        </mxCell>
        <mxCell id="Y49z8xyqxoSdH-bz4BjA-21" value="" style="whiteSpace=wrap;html=1;aspect=fixed;fillColor=#d5e8d4;strokeColor=#82b366;" vertex="1" parent="1">
          <mxGeometry x="220" y="520" width="80" height="80" as="geometry" />
        </mxCell>
        <mxCell id="Y49z8xyqxoSdH-bz4BjA-22" value="" style="whiteSpace=wrap;html=1;aspect=fixed;fillColor=#f8cecc;strokeColor=#b85450;" vertex="1" parent="1">
          <mxGeometry x="300" y="520" width="80" height="80" as="geometry" />
        </mxCell>
        <mxCell id="Y49z8xyqxoSdH-bz4BjA-23" value="" style="whiteSpace=wrap;html=1;aspect=fixed;fillColor=#f8cecc;strokeColor=#b85450;" vertex="1" parent="1">
          <mxGeometry x="380" y="520" width="80" height="80" as="geometry" />
        </mxCell>
        <mxCell id="Y49z8xyqxoSdH-bz4BjA-24" value="" style="whiteSpace=wrap;html=1;aspect=fixed;fillColor=#f8cecc;strokeColor=#b85450;" vertex="1" parent="1">
          <mxGeometry x="460" y="520" width="80" height="80" as="geometry" />
        </mxCell>
        <mxCell id="Y49z8xyqxoSdH-bz4BjA-25" value="" style="whiteSpace=wrap;html=1;aspect=fixed;fillColor=#f8cecc;strokeColor=#b85450;" vertex="1" parent="1">
          <mxGeometry x="540" y="520" width="80" height="80" as="geometry" />
        </mxCell>
        <mxCell id="Y49z8xyqxoSdH-bz4BjA-26" value="" style="shape=image;verticalLabelPosition=bottom;labelBackgroundColor=default;verticalAlign=top;aspect=fixed;imageAspect=0;image=data:image/png,iVBORw0KGgoAAAANSUhEUgAAAGQAAABkCAYAAABw4pVUAAAAAXNSR0IArs4c6QAABw5JREFUeAHtXMuq7UQQLRV15tQ36MhfUUeiDvUfBD9A/Ronvl9jQUH8Ad9vL4jgA0WdKD6W3HXps253KrW7e6c7Jw2HSqWqq1atSrI7O9nH7BgHAwcDBwMHAwcD+2HgMTP70cz+6fz3rZk9tB/a+lXyXedGpI3+pl8Z+4mcEnaO7f0w16mSczQhzdGpjP2ETcnCduvRO35rvJvH601Y7/ibE9gKwMNmhpVPb8I0/rHaKnQw1wyQ13poQ6Afq60Myzmicg3hmVQ6sj372jwZiJdr11qi0jMpd2R79rV5Lhf7mWrXEuUR7tnX5slAvFy71hKFrztwZuDvwQxFnn1tnkzoy7UrPbJT0lqzkMbmdu7S1zrvdPF4ZJMkytaFMC5l6UxrnXfaeCSKsnUhjEvZOv7u4pEoytYFMi7lUvxbloyz2x41s+8zd+IkZlSJxwGPzE6+4r/vTA+dejX1BzNDDbsY95rZ5xOeGdrcr83s/tk7gmZ8toNmsDlTN8VrxugHG5ug8qsZz5R7VpwZszYEDUJTpvlMQTM+XXGZmrkh0zSl1IwXMg2arSG5GnDgoeYhxx1m9kGG+JfM7ObM/iGLSEDpZ8dNZvZ8po5PzOzuZN4Qm7cXmvGmmd16FaEWOATwBRA5vDiwXh69KXeZ2ccZkK+aWfrVQ67AHB+jvLlYwouaUJvawQG42HTcaWYfZcC9Ls0ASC2gBHyUNxeX8KIpqFF9wAU42WTgM+PDDKg3kssUgUU+Q7TI3joxqtS8qCEduBSjVvUDJ+Dm7CN3hLxVaMaLGeAlwFpgb30tDtSQawpqVozg5mzjBjN73Mz+ECB//rcKeUBQ4NR+RfwIXlyvqbRTXjM02mBcylJY2lOJWtLPRcxFzag99QM34AhcdR23mdnbkjwF8mVyB4tTOncW0b8ElHbKkt+p+xmXshSHdpWoiStH3K2jZvWhDq7AWZeBdfi7C8kJAgBx1GDJy305WQKpviW/0n5vvmdnXPVLddSGGpeaQf93zOxGBm0pn3QIJgBIPYVTG7dL2GinLPmV9nMepfpxP6XaqdNekmtq5NwnGLSlfF8aglMXd6hYe+NunMlzMrcaK2HT+erX2858midXQ+pDPsCJXqrfY9CW8nchPf26AE1JwaXbXAam+7BdGp5fbztxaZ7SMp9+KR/4fov7IX9j0JbyJ0mSfqmmAAiGzQAO7qMsYaOdUv24n7K1nfEYnxL7l5qyxAe4az50dcVTFED0BgnLvtfkBomFUZYA0k6pftxP2drOeIxPyf1oCmrXZf8SH+Cu+Xg2c5QTrMrnMtnVJ+Py/y71662vxaF+qHEtNnDXfOB58loA8NWhc9VOXf1668yrUvOqvZYPjRfWFaCnawL1Vzv10ju+Or+FvvROr8YnPkq1ezrnNZNeQrVrYs9O/9I7vjq/Vvfe6dX4xEepdk/nvGZSE2rgWrvG21qvrcebX12fl6DWXg2wcYDaerz51XC9BLX2aoCNA9TW482vhuslqLVXA2wcoLYeb341XC9Brb0aYOMAtfV486vheglq7dUAGweorcebXw3XSxC1q//ouhKoeKN29Q/rtQB0/my6Eqb4o3b1D+u1AM55B65Ya/XcHb3GVEI9u/qHdS+BZz/XHbjiqNVLd/QaVwn17Oof1r0Enl0T7t0/Wp/y4+peAs+uCfbuH61P+XF1TeDpXkCdP7u/1qO6V1/Yrgk83Uug82f313pU9+oL21s/kIkCHs2/NR/hhkQe4T6zIvpoBEfxtOZjBWUXXfQlB7zEgNd/cu8hrXmoHyVgNP/WfFxke4X2szxTX3oPCb7eGI3gKJ7WfHh8XWdP32P94jrrxfdcc3adEiVgNP/WfCg/ro477StX/7Ctw7Or/2gER/F49Xp25WNzPUrAaP6bE9gawGgER/G05mPzeEpAVPcKiMZTfy/+7uxKQFT3CInGU38v/u7sNc9Hcs8nlKDe8TXf9DpWISBWj0xPLz2fUEJ6x9d8u9HxG7y0CXytP/cNAHyjo3f8KJ7h/X+Vhix9AwDf6OgdP4pneH8lbOmXSC0a0jr+8ARHAZYuKblfZrW8ZLWKH613WP9T/+sPVk/4wPZG7/he/unsNf/1Z82yt3f86Qj3AKcrq1O2t47v5Z/OfkoT0jlewanvKdte/N3ZlSSvwNH8PbzT2UcjOIpnOsI9wFECRvP36pvOPhrBUTzTEe4BjhIwmr9X33T20QiO4pmOcA9wlIDR/L36prOPRnAUz3SEe4CjBIzm79U3nX00gqN4piPcAxwlYDR/r77p7KMRHMUzHeElwE+b2S/y2FbJWKPj/eHcc5He8Ut1Tbkf/6/wrwbNYMPwrnE6esdPc+1iG4T93bkhPePvoglaxFNmpr+t4BEfkaVLVu/4Ws+hHwwcDBwMHAwcDAzBwL+r+Mvhq+dYhAAAAABJRU5ErkJggg==;rotation=0;" vertex="1" parent="1">
          <mxGeometry x="315" y="295" width="50" height="50" as="geometry" />
        </mxCell>
        <mxCell id="Y49z8xyqxoSdH-bz4BjA-27" value="" style="shape=image;verticalLabelPosition=bottom;labelBackgroundColor=default;verticalAlign=top;aspect=fixed;imageAspect=0;image=data:image/png,iVBORw0KGgoAAAANSUhEUgAAAGQAAABkCAYAAABw4pVUAAAAAXNSR0IArs4c6QAACutJREFUeAHtnQtwFVcZx/+VVmyxtOMwqH3YVoot1heDFqI8AqEJKdh2rDo6jjo646joiDq2nfHRoYqvIbkJBWoD5Xl3NzEqhaIUSHLDY+p0WhyllUK4eRUoFAqGUAoESP7muw+ye597d89N7r3ZO7Ozj7t7znf+v/Odc3bPObuA9/MU8BTwFPAU8BTwFPAU8BTwFPAU8BTwFPAUGC4KcM+ka1iPEcMlvTmTTv6z6Fpun/ElNhRXMVDSxMCcDgbKT3PHPF5ZmudeZqD0BBtnvcKGGZvYWPI4/zFxOhfiXTmTkHw2RITktmlfYWB2A5vvP3dFeDMEO9tNpV1sKt7AutHlHhwHOYLNxVdze/FjDJQfdgwhFlTTbFKHLEEa+CnXY5QD04bfJWyc9hADZe3KQETBPHdnFEh4reEYdfyINbhm+KlsI8XcUj6SzWXL2DyvTzmMhhmkMcIKJOwtpIFXqWGKDROHzylsKrqZTWWvJQTxwlfJ9vVk937y+C7yxW8NVOLR3J9q3VRC/nlUYhhRKDp6aeB3XmsNALd+7h42zzkSB2PXF8gOjbx8npbf2232gWz9DFn3nnQwBv430EwD7x8+rhCTUm6bfgcD5W/GwfjXT8hzRy0cLDu7vxiGEiglpThqmDawbJtCbp5A1t8wIPSAJ6Q/pqGDOsbHmFr4u9w8aQwDc9riYLQsJfsuWfS37JwJkn8bS9aOTC9uJiDM50qFb+AThU/BlEIGSrfFwZC6ItXvWBMZ21oyC6ly248T9OMuk8mFu8nGGY/GwQiuSI7i+E5S6gOVgtsLq63g65RQi6p57lkLkFd/Tfb1xQO5fIF8aT6pXzUUMMJxSkXfjKsL1j3YOLPOAuOFr5E9XfEwek6T26cOHQirB/22IIFwW9HdlAeA5vuGE7vjYVw6O1RFVOIMoOEyddxbcFDYWLLKAuPfj5BMUFTtfCixMNZcO9jnvFJQj1lCj8933N9tAXJqT7x3tK60L7TcMxjYRB3PUMdqGthFHSezVvlr+EHBeAkbpn/ZAuPF78RX5FJv/HVMaiAaLlHHGhq4J5k4rMVk6lhGDacVwznKelybLN68Os7tJbUWIMGaeO/476J0MN6ijpl2E871GBvxnl6FYBbYjT+nz2OgrNMCZN8frEB6L5LP3pociIZz1DHJSSJp4D7q6FIE5QCJq5zYkTPXcMvk0dwxt9cCZOcD5PFAuFLv7SFf+n5yGOHK/IduEsQ6TKCOTiVQDMxyY8uQX8vGqbMtMMzNXrkPaSxODUPDG9yCkW4TEoGiwlNq3NoypNezYfq3kwIROPJ0NnWT1qcqAdRQSun/SB1fOnuO5nXfPBtn/jwlkI23pxbAwMOqgEg4NLDKJRCyFhNV2jSoYbGheHFKIM/enBpILT6t0uBQ68ttk1jD91TaNKhhsWnW710ByULfBP14ypWXGFg1qCKqjIwNxb9JDeSW1B7iR7FKeyQsGihyCWSXapsGLTw2TPtxSiAbbkoNxMD8bBhLDadcQOnMhk2DEia3Tn4wJZB0/d8G1mbDUPqx2zEQDT3ZsGlQwuSG8ROSApGBCuk7oLpZg+tUGxt6Jua0+auhT7U9gxZeaIxubC9h9OZw812pi6sBwb6h2mDqWOfYQ8SufB51z8aSl+O8pHFm8hGFAyCiwDpVewl1bHQMRJ465/MzLTYU+SxAQiMKr4uKbW+tYZFKL6GBIy6AHFNpy6CHxecnFl0B8vwkZ+OqpCvVwOdVGE8NH3cMQ7zXwH9U2DGkYXDTRw6z/np73hBfZIWv0/A2Fdy5U8d6V0B01A2pmCoip4FfuBQhCvMsdTzo1CZqKGF44EI0PCfrx5zGnzPXsR4foI6LSqCIoBoWZVrRSyeXon532z2XOQMgkSGRLlUnOTLZNa9TwzfTgZH+lP5ewwXUcd51hpAHk4Uy0af/Zuw2+nHBtSjxdcyZUL1gYL70u8vj8ZA3GHiYOnzUcVRZnH7UJspseXuMOl5WJk48mGSelNHxnnXgO2vCi2xb7NVQmrfixxoemqmUJREtojmIo08D/7cCbK8GWyqsS1sVeKoG7PXjtby+ITQDoY7FbkXL1vWX1oOdS6wQYqHIfpsvjzum3MCQ3HphbbjIkLXsZwuGhC8ekAiA+dj+CuzL6770KJBMiikpr48tBw9WWgUK+sLH48pzB0WTGWz3M6CEbRY+0faBSvS2VWF2NE1Dupbhk6zHe50YkUkx1bUyHkQicY4uB92CkeuPLEsPIhr/QR+qnaRf2TWhZqOBtdTwpilHdffPvdtAHWV2IsoExska++JERTr0JCg5/LLfXnEmxd7Z1eAbGYCIxLVn30K8206alZ8js4WoYwk19JlAxJfffjzHetyQzIBsw4hCia47qsNFmoA9vRI8syoMS1pNJ/4EHl5qr2iKhndlXYnOA3/ETcnSmdXj0pzrH1X+l5QgzGW2vAUhwbzuTOoMJ55xRayYpmkWjh9uWzKEU6Rp4BHbMAbA7DNDGWzPyAKEcAVfiZaOKtyeVQ9IFTjX4EYXI8RDUArGMyqxsaMKN6bSK+v/hR7QDeT6+Doj/X+2Zy5lUky1+rC3pQI9WfMEa7HXFfRlZ8hRxgBpYIWD4ipjcJnACFbhKUlI51Lc0eaDv6UCF7ME5mLQh9WtizE2Y+GydUFkrl7GAmcC0QkMc3qltdNWjSdaKtGpCMzJoA/L2ytwmzmenNjuf+GKnom4mZ7rFkasSK0VmNS+BIuCldh5oALddgDJ3fbBSuwPVmJlsBIPNC/M4RcC9M+Z+FWmIts9XzWMWDjSXD/8NMZ3VKOstRrfbfXhl0EfnmirxuNtPiwIVuDr7T7cG3wSo2Ovzdl9+vFJuwJncl62YeSsoCoMo4a/ZyJ2unM9GC6pcB0+RB3H0wlt538PhksY0cvlhZDU0W1H9GTneDCiaipaRyazOILiwVAEITYYJ1A8GLEqKt6nYX+4vgdDsfixwWXrqa3cGcfG5e2nUSD0Cu70DxNDj1k8z0gjptu/WYdxdsffZgTD8wxnaOw+9fVgONM3o6tCXbjWQQ0Jn/56MDKS1fnJkRd+JYQQvQnMCEakP8O5RcP8yv7R4x+OCp9oLSM47DzmlnO81pSCzMRVuD4RCDl2bo29QWweDAUgzEHQj72JoNgZiByC4RVTZjndb1PDo7FAzq+1V1R5xZR7/eNCkI9lUcMhMxQ7dYcHI05KdQdk2jF1vBOFIkMxU1XmHgx12icNKQLldYHy1tNJgVxsrcLPkgbi/aFWAZnZKsNLu1Zgr2W+RiWOH6zA2tbluFNtjF5othUQOIdqMC6nBpPZtt470VPAU8BTwFPAU8BTQLUC8lUB+RiwfINDJpHKlLgxkeWDAMzLLQBkMR+T7ej5cq2EIWFJmPn9xQLVSkdEEZFEtHEAPgaE3kj9WSD03l2ZKDovy4vEIe/4lTjlbdhig9giNoltBftlaJmRKom8G8BkAPdlWWiVIMVWsVlslzTkLaQRAO6I5L65eQQgHUxJi3iUzCeUNObF73155gXpICT7X97UIGnN+Z+UxckSUWjHJa05/5NPj34UQHkBg5G0SRrz6jOrUpnfCoQ+zjUYraZse5+kQT40JmkamldnKPbFUabWljQzpwOYk4NeJDaJbWJjtHUltg+bn+Q2affLNGO5uZN7ASkOPhXJkVMATAUwAwh98UxyqnmJ9Qzzf7ItX0mTayUMCUtyuYQtcUhcEqfELTYMec7/P+yJDPRNOYIvAAAAAElFTkSuQmCC;" vertex="1" parent="1">
          <mxGeometry x="477.5" y="537.5" width="45" height="45" as="geometry" />
        </mxCell>
        <mxCell id="Y49z8xyqxoSdH-bz4BjA-28" value="" style="shape=image;verticalLabelPosition=bottom;labelBackgroundColor=default;verticalAlign=top;aspect=fixed;imageAspect=0;image=data:image/png,iVBORw0KGgoAAAANSUhEUgAAAGQAAABkCAYAAABw4pVUAAAAAXNSR0IArs4c6QAACKZJREFUeAHtnVeoPTUQxj977713UeyKClZUEFHsiqiooOKDCuqLBRW7KD7YRbE3LPhg72AXsWLvKPaKFXs7P91w4v53N8m2s7s3A/cmZ8tkZr5NJptNJlKkaIFogWiBaIFogeFbYH5JG0s6QNKZkm6UdJekhyU9m/yR5xjnuGb/5B7ujVTRAnNJ2knSuZJelvSXpL9L/nHvSwmvHSTBO5KHBaaXtImkSyT9UNL4PqD9LOlmSdtLmtFDril3yRySjhg1Rx82CEIeUB9IOlzS7FPO6hkKA8Rxkr6cABBpgL6QdMxUBobm4r0OAJEG5iNJu2c8PIM9tISkOzsIRBqY20a+bLHBopAotqWkT3sAhgGHZmybIYJC7+k0SX/WAAZd2Pcl3SfpCknnSzoj+SN/paT7k2uqdJUNKMh8kiR0GATNLOmmCkBgkEdHljhR0uaBTpeeE/dw72MVH4jrJaFLr4kXsAdKgvGmpKMlLVmjBZZKelJvlZSJWjlnjfK0yoqn88kSir+Q9HKabCLgvYekF0vI93hgLW3V6HmFzZSMKZl22Cf9WtJBo/Z6ujymDRynrH0lfR4IDL3E3rzho+Q1gQrinOdrwOC+LBl8vCpQZjoPvSCGQHxqBNf8JOnADmm1T+AY2qEdkj1TlA1GTvNXT0AYt1o9k8tkD64h6WNPHX6RtN5kxc0vfZ6AoZDXR+8QS+ezmviZZSS94QnKO10dzuelzKepelvSIhM3uVuARSW966nT2W527V6x7mjU9g8P4RmKWLld0SqVtoLnUM/vktauVFKNN9OresoDDHzLhjWW2xarjST95qEf7ydtdtlz9eczq09TRe+rr3Skp47bdkHBpz2EvbcrT09Jg/HkP+ihJyMTE6WtPYSka9gnv5Fn0JUk8S3e1RpskcegjeN3eAjISOtQ6FQPfW+dlLILezi7byXxfjIUmlvSNw5Q6AAsOAmFfYZIhlQ7jI19askh5uI2U5czx3dM5Elp2AgLeQwPte7cGR11fY69pWHDTJI9EyCKnDsvyfO2KeCuDoEQdsc2BWq5rN089GfKamt0gUMgmqvZWpOm/YL4GoqORbXknDbFesYhzENtCjOhsph4UQQIw0mtEG+t3zuEOaEVSSZbCFODigChe9wKMfOwSBDODdl/GCPv4mGHVj4zMPvQBciqRurAlBevvUdDFEclaRPrOOoqYzUPOzAnrHFi+kwRIHT5ykwo20wS30ts3p9J2rRGjeosYxaPrn8rk7aZlGAbLZ0v03YyqZlhljQvfsOvjqrfRBkuX8qSusbJNWTC5IVQOjYHDAMQ6zaqUhNlsHTByJiVHlZVaJ/7j3cIwQSGUGLebJZC5th1oQwzrm+iDHQ1Mmal2KpxYsAwq3Bz7JUSErDez9yflXK+KjVRBrpmyWuOtTK4GgEZPxoRkLEtgnOxhgSYrAljpYtvooxYQ9JWDvgdAZmwsdLFR0DSFin43YSx0sU1UUZsstJWDvgdAQkw1uWO/vxlAbzyLm2ijMHWEBbKmJeprHSvPCsHHG+ijMECwnq9vAnbzOCoYz1fE2UMFhAedCbUXW1NseGbNev46pxoV3cZgwbEtD5ECFq+4aXHdZUxJQAxwPQhjYB0DKUISARkWgs0Mfw+bSn9OBJrSMdwioBEQKa1QGyyxjaJNWRsi07kIiCdgGEsRARkbItO5CIgnYBhLEQEZGyLTuQiIJ2AYSxEBGRsi07kIiCdgGEsxCAAYVnAspJmGOtVKccSO1Z18VdXeCRkQ0aCmBVRrwEhHiNbE5lv5l+N1n5Una7P0mMi1Bme5Nl1oQqxlwghaw1PFriun8Owt4CsU7BQtOzaj51zotixgotzZYi9TAwQdsrCHHRIUy8B4Tu2/RTbipIn0hxBJ0NoxYIVV/BkNRbh+UIIGYoiqqJD+vt+LwFxLZTBgBcHWI61fc/lPMk22IQRnzWAL/te2fdn5ZlsZ1PvACEqTpZi6WOENMKJ+tCFnjwp4zwfhknI2qLaYct7sMWzV4CsmUSutpUpyl9kKZqXZVVrEY+sc3vmMbOO+9QOw5vpSURhhXoDCFs6+AYiNopSS4p8CT4hb6Wu4ZGVcg/TivKIgM6+tcPwJ3gy/qQ3gPj4DaOcndIcZZGv37B52Xm6rvDIopDaYfPEn7zqqLGdWGPoE1DZVszO0xyw6UqaQvyGzc/Os2Nomlw9K/v+rLxL104AkiV4yDFCP9lUxm/klUd8EpvK1o48/unjgwCEWmK2OeJ94ztHs5A2QtFvokIslyBStXYUlWPO9QIQn53TqCW8QzzvCQZNmm+zRqxIYrH41A4fWY3xs9LOA8LWQkT7yRLePkbAYt+d3QAN8EIc/w2ePStkDd0Oydaj04AQNJNI2BD7ntuCl82zo/QqCU+Ssl3jrPIJrg8RqdrlvLPu51inATn5P/3+/e8TcytPSfs4T3Ca6uoE2CHDTyn5AHUWEGpE+vtH1VpSNP7l609scO28qR0GbLbZK7MfYycBoQ1e3GhmpVVqycuOqKch/sQGwuSRLU3E7PoksKZ0DhDbb6QV5HeZWoLf8AkhWNafpGuHLXeoP+kcIETuLKIytYTVtL5Uxp9k1Q67PHyhqUmutFOAZPkNWzGTD6kll5qbAtIQf/KEB98Qf9IKIK6Icjw1BK90TRAwutMMuJ40zrv8huGXTkP8yVbpm3N+oxs6uuRuJaIce8cWCYLf8FXM6PuIg+ePnn7D8EunPkMwbO8dQuiIrkW2CGleQ8r+37ULOMaXylRTwrcWDVPwEFSlIn9C2WVi7KJrHiCMwbGLRCuEcuzdlxbm2oz3DV+BTs/gB/+zfBl4XJfnkNmkpQzxbpUV1AbbsINCq7RWEmmBkBi3S+JTadU90Jm+c7ek15Ltv8tO5ykyxHajTSDZJ4qJEuwDUnUeF5Pz9hvt0XhPEh6E6BN8vo4ULRAtEC0QLRAt0KoF/gFVkxPvozkwDAAAAABJRU5ErkJggg==;" vertex="1" parent="1">
          <mxGeometry x="395" y="455" width="50" height="50" as="geometry" />
        </mxCell>
        <mxCell id="Y49z8xyqxoSdH-bz4BjA-29" value="" style="shape=image;verticalLabelPosition=bottom;labelBackgroundColor=default;verticalAlign=top;aspect=fixed;imageAspect=0;image=data:image/png,iVBORw0KGgoAAAANSUhEUgAAAGQAAABkCAYAAABw4pVUAAAAAXNSR0IArs4c6QAADgdJREFUeAHtnQl0U1Uaxz92kEVEHWFERVBWZbBJy1YK0rJZ3M7oLCqOembO0VFnUWYcHcdB4JwZhyYFBIQmYU1aqGgtS/cleS0FEcricrAVusiu7FBaaPuf84VG0vTlvZfmpbykzTnvvO2+7977/93v3vuWe0PU9mtToE2BNgXaFAiUAmvGFt1pCheeM+sFg1kvbDXrHbvMOqHEufC285hg4DCWhwp/Hqh0tGq71tE7epl0BX9yiq8XYPZhsYQJOy064XW20apFVCPza0dmdreEC3NNeuGMLxBEw4Y7Tlv0Bf9eodt1kxppa3U2zDoh1qQTKkXF9cFDPK836YVyc3jB9FYnaHMzPGdSfkduH0x6R72nmGrtN9j+IPnp5A7NTWeruG7xfWldzGHCRrWEl7UTJqQmjy3q1irE9TWTycO/7mwJFzJkRfSjuhK1HeZIW6Hb1cnX9IZ8eLPevk5UMLUBiNkLF1aHvMC+ZNCkE165YTAaAFnChT/4kuaQDbsyvGCgSeeoah4Qxz6TTrCa9XYjL9e2HfuaaevSqjH5A0JWaKUZS9ALW3wR0KRznOf7CSnx+JxJ75hj1gsXfLFt1gufKU13SIazRNjH+iKYSef49KOR236mVAwOm6C3p/gSh1kvRCi1H3LhuEQqFcsSXvAfENr5KsIcQnu+Vmk8DN3XOEIiPJdes95xRZFQOmGVv5k264QEhXFdNY3OucPf+ILuerNeeE2JQCZdwZd8j+JvBtmGWWf/SkmcFp3wsr/xBd31Sqsri75whlqZSwgrmKkECD8tUCvOoLFj1gs/yInD3qF2hpR4iSXccULteDVtb4Uu/zY5GM7zOuF9tTNi1jvmK4p7bFEftePWrD3uWioRxRTmmKx2JlaGF8QoidsSUahXO27N2jPp7VMUiaIvHKJ2JkxhjmFK4jaHC9Fqx61Zexa94zFFoohUG9jy4C3IjJqMrMhXkTVhLnIfNiI32oScySZkTzReOzbpNWRHTkLKgN6eIpjHFvVREjen0fPakN0364QnlIiyalR+b6Td1x85UX9GbvQm5MYcR34sYJ+pbOGwOVOPIS1sI2w0C8nUl20qiZvTGLIAPDMmB2T1uBwUvb4AtVkxO2F/pE4xAG+gNg0GbARYqbZ2Tcec/Ofew6ox2dIfS7QBEbA2MgvFb/0b1Vt+qcwDvAHwPL6h+zUgDKVhuWzqjeLXX8Ta8WniYFozEEuEHcVvv48rGY+pC4LBpI36CYILhvu62tILRb//Cyzh9sZgWiuQrU9bcDb51+qDYBjZE4GkTpJAXHB+jB+M1NiE61BaHZAIB/a8Mxf1eY8qgyE8Cex5CyizAke2Anv+IX1d5jhgfVdFMFxQ6tZ1cFZjTm9pTUBSZ9qePW55QVpQZzvwKLD/PeB4HlBbhUa/+jpgrwiU7AlAyl2ArZ1PMFxQeF0xbxySY6zPeHZGQnIf+aP716TNOCLZc3I8DhxYCFyqbMSgyc6xj4Gih4Ado4DtIwDHACCvH5BxK7CpJ7ChY7Oh1KzsWY4kCu1vg5E+fgjypkvD2PdP4GJ5E+1FDxxeABQPk16KBgJZtwMfd24OnFKsobtD0zO2Du+LvGkVXj2j4CngaLqo7k0P1gFnMoC9D0nD8IRVcDfw2U2+ginFWlL82jgo4CF1SE/kTP7GK4ydLwNVh5vq7n6k9gJwKgUo+yuwP9I3EJ5ghLt98xgr7cAKCp2PtJETs9krjL3vAFcvuEvfeLv6EFDxnu/e4AnBc3/30GttjdvNonvD3mTbSolBUfrlEonM8bO9wtj3LlBX0xiAa+/qGaDyfWDPA/55gycIz33hLiCpvbJqzEq/k8uvps8jdeQQ5M+oFgWy529AXbVL/sbrcw7gywmBBeEOhht+ZT2yi7DRPZoWXSpxyI0RRGEUPQ/UnGoMwblXDxw3AcUjWg6GC8yOQcD6Dko8JUUqz5o9h6zIWaIw+IbvzH4RGHVAxb9aHoQLCK+LBiirvqw0U7PCiyUMoHbIif5OFEjhb0Vg4Fp74S7OjdrO7yfvJYm0l/MolndNHkPWOO/ewXfhNacbQzm57sZ6hif8LTfLQwkmL0Hu1P2i3uF8PjUT4Aa9uhzge4sTKwPfk/IUXG7/i8FK2pNCTXqDZ6KQF/kLSRgMpShcWx4hBii3r7yXJNJQz/xrbh9ZUcslgTimAbuHax8I3zgmyz6cnKc5AJ4JQk7MUUkg2yJUg3E27WHsmfcm7K/9z7nsmf8m+JjsA0cxjxA7lnOHnJeUeuZfU/vIn/SAJAyurnb5f49R+/mDKHxzPvjVr+cXJPxyadvseeAwfoPhtiRR5r1KEml31BWyJvxdEogw0W+R6nePQOZLS5uA8AST9eIS1KsAH6k9mnhJzRrC8WWEg/GEUgO9qimvcE8MsiemSgIp0vsN5Ou4P8rCcMH5xviK3/HBo3E/tYJQYiB8G3dtObiQktw10NQ2cqd4f8TO1dUX/lcj66elKAayYfqn/gPhRyoNT4RPfnQdhAtIiYF2awqCe2KQH3vRu4fM8Fucc5lRimG4vOR8lgoPKZPa44KlKQyGciCOzrlroJltZAzr5x3GTMAR7TeQExtjfQbC1/jduH/SFWULxYEwlGOL6XbNgHAlBFtGSvewHP6XVO7Sukq+0vXZ9El+A6na2POnNsNVVbmvv19O97t00Mwa2eMjJT1E8PO1a/EwZ68pMXqzYigcVo2b0NMbekkCqTSS9saSICvqEWkgY/0uqVz1FM+drRjI3vlvqBLnyaTekkDKPyTVBxb57WnIHDdZEohdp4o4tTtHIvXptbJQNv1qNTis3+1H8TAct90sDWQRjfNbQLUNIEMXJgkk635VxGGBqwt0SJ+13CuU9Oc/Qk1hmGrxHV0j3YZULKERauvptz1kjrzXK5D8GUBqL9UEYigXsiO9AuFzaniGy0alqZukh5xaSnf5LaDaBpA8vDPsM6+KQtk87NqTU7EHeM081pJADi7uIAXkCvKpo9p6qmIPedMqmwDhIQGJDR8P8MO6ZgLwvK6lgNR+PlgKBp/T7hNf5Ex0NAKSHQUkdfnp0QMc/YMOyPn0OyWBHDJSuiqlORBGkB0V7wSSNxXgcX2JHh+gpfUJOiDHE6V7WIcWknZfUmHz4GhsvLUpCNfnmvwxWvFQVaC0RJVVv3sovpNuP1BqpImBKNyq2OTGDTY673o6KrrmTzdVaEdaAsiFzP6S1VWJgS5+PYf8nqlIFfG9GYGN1ouCcHnJZ91VAXKlaJTXN4Z8Tg3olaabJIEcNNIn3nTQzHEkUawkEAbDXwiq4CUZLyxrci/CbxPVsF2Vd48kDH64WLaIHteM8N4S4qy2rHRMEkpKN1VEu5Q/BmnPXR85mzZrBarso/23vXsYKhK6SgNZQCc1e//hCQc2elcSCHsJjwVUwUvYRpU9wrmoZe/MpjukYcQRNN27agLESr1gozOSUHhMxvZBqkFRC0ZNwUCUxreXBFJioPPfGym45tOCjeZKAmEv+aQrsGuIZqDU7RyCsmWdJWFw23Ewnv7rWQg1v89j8mClMlko3OvirwRVqr6aa6d+11B8b+kuC6PEQEcOfEA9NQ9ALIGw0pOyQNhTNve6oVAYxpHVPWRhsHdULKanxPIaNMewjpIUQUnpfkOqL354WGmWfrzuen9eaqTgn60UydQDNjqgCEpyJ2CbOvcoSqquy/YBOLSkkyLP+NZA5WXx1GSGuqDxDPeEwkajYCMeMHn9ya+3bf6WNvO2gFZh3Hj/kNwHJcZ2imCUGOhSxSLSuecp6LdhpWiso2pFUBgWewvfq6jY4HNbcXZzXxz8sKMiEA1V1dXKDyk051+EjZ6FjeoUQ3GB4blKdtzX7J7YlW2D8OPGW30FwV8l1h6Mp5eC3hukMoBEegI2uuwTFFf1xvct6X3gfNG1faCo97AXVAv34kLGnTi5/haUL+/iize4h71SZgzyiQKkQLifQyJNhpXONgtKA5zadYTTCYTDS9ujbEkH8HtvuTtsV29Jdm2gc5WLaap7mkN+m2dEgI22NwfKGRPxiyH30qzadomBvjy0jFSfwDkogCKNuiCR4nn6VqVgTogMCZAt8Q1jOWTC1R5aSEtLF1OXoBAvkIl0doutVCQH5awpMF5RGkf7KxZSZCDzGHS2MYfaw0rPwEpfiYGps6pfTX1npANli+hFjjvoBGupBDeAeRJWynCvylT0jtrSBWQvW0S/CarpMVoKgFQ8PAklEukN2Cj76BK6LNMGeG3YD8RRVYmBhLJF9PbhxdRfKs62cwoVKFtFXSuW0JRD8TS71EjmUgM5uEdUYqCKkjj60bkYqKLUSPtLjWTnMBz28BKK5msVRtMWrE2BNgXaFGhToE2BNgUCoADP2MZ/PN+NiHoQ0c1EdFvD0o+I3BfuOfHifoy3XeH5WrbBtthm8MwGFwBhxUyyKCwSizaIiB4gco5k5bF6k4hoGpFzXkOe2zBQC8fBcXGcPIqW08Bp4TRx2jiNIfnjj5E5kzzZ12gimhJAkdWGx2nlNHPaOQ9BC6kDEd3bUPpigwiAHFDOC3sUT8nEeQyKH3/RF0xeIAfB2/kYouD4epHrYm+ZCLXjnFfN/3hE6nAi4n95DjUArvxw3jiP2hx966WIcGPO47f585mW6DW5xArUmvPAeeE8aXvUlBcgnoe7u/W2uJsZRUTTNehFnCZOG6fR1bvitLeaH5c27vfzv9jwzR3fC3B1MKqhRI4hcr7N48GVPMkLl1T3xdMj3M/xNl/D1/IbQbbFpZxtcxwcF8fJcXMabnjJ/z9ZLCf/f2/VdQAAAABJRU5ErkJggg==;" vertex="1" parent="1">
          <mxGeometry x="475" y="230" width="50" height="50" as="geometry" />
        </mxCell>
        <mxCell id="Y49z8xyqxoSdH-bz4BjA-31" value="" style="shape=image;verticalLabelPosition=bottom;labelBackgroundColor=default;verticalAlign=top;aspect=fixed;imageAspect=0;image=data:image/png,iVBORw0KGgoAAAANSUhEUgAAAGQAAABkCAYAAABw4pVUAAAAAXNSR0IArs4c6QAADidJREFUeAHtXQt0FNUZntZq7WlP7cuetqf26O7izi5YH4gCUkXqA0UrilRUyIu8lNYWRT3taVVo1R4ftVrfVeShKFHI5sEr4RFEIkJ2lzfJzmxCEgREDiGaEEhCvp5/kllmZ3dmdmb2GWbP2TOzM3Pv/Pf77n///97737sMY30sBCwELAQsBCwELAQsBCwELAQsBCwELAQsBCwELAQsBCwELAQsBCwELASShgCCORehISsfXPZz4HLLwRVsBVfQAL5oP7jio+CKjoIv3C9cC073C8/wWc+ifkoedt81LGmCDtYXgcs9F9y0mQjkVIIv+hLB+2D4u2ciUMe2wudcAD+bDf8lPxisuMW1XFg39luoz5oKPr8aweIThgmQk7djLOBzSb9d8LsWw++agBLmjLgWYjBkhqacs8HlzgRf1BI3EkRSuOmAb6iUjPDzOlcj/K4/Yd35Zw8GLE2VAWC+AT7nYfCFh+JOhEhIpHaEExLSHGcL/GwOyWSqUJmaGHzuaHCF2xNGBBGye4IC+GHNl/yZLfA5L89UXHXLLdgJLu8V8MW9CSODLwB2jpMDreM32wM/+/igty/g7z8PXMFnUYloeghoqwJOdgF9J4AjFbF5VQQ+lwcEsoD6ycDO6wD/RTrAV9WWdfA5f6G71mVCAjTc+1twhW2RZMwADn8InOxExGffM6dIIeNcP6kf8O2jga2Xxgt0jXzYA4OuCUMg5w7wxZ0RZLTOAY43RfAQunDwTWD3LcC2KzRAU63l5tN62Q54h47PhIqvKSMacgrAF/VEkHFofn/TFEJfdtLbDmwfYx7MkBdlkjQvewI+dpJmgdP5gQHN6A4nYwbQvl6Gvuxnew2wa3z6kBEile2Gl70xnTFXlA3108aBLzoWRkbjA0CHX4a+5GdXAAhM1UXEyc0XoXneFAReno6vqn6jK62s9x5jWrYTPnaUYsHT8Qbqp10QYcAb/wgc2y1BX3La1wvsf1m3d9RdeylK73gPb13+sfB9Z+QaNL19T4zAmmnC2APY7P5ZOmIfIRMw+Qxw+VvCNCM4A+jwShiQnPYc6XdbQ81C7ED55jwcIkMk5d1rl6GvTmWoxMB7FDRpXUb0U0CdPnHYQjySTYj26eKBmIc2IomqLngpghAi5uvqZDkD7GMRNTKdLmBP1qiIHjh5U9E+nTuAbSNNNS+rcl+NSkj7ymtM5augEVHyZHvgG3pxOnEQkqW/qSrcEaYdLbOBvu5IOro4YPuoKAWM1AI1cFJPiAvwuzak5YCkMGorNlHCcQZwvDGSjJ7DppopIog8q0NLbsbSiYuiasjmv/0VrQvvxIlPLjNNulqFkNzLCtXMdDjBrslngSv8Ikw7DpdEktHXo9utFQtNhrp53l2ozn8R5E2JRlztOPeKGlTePRd7XigCeWRiXvE/Oluwy31WOnAhyAAu69EwMmigsLcjkhBybQ14OV98NAGeSQtjIkGJoPljVmHb038WtMuIDJppvO7ctCBEGE7nC1vDCGlbGUnGsXrd/QwCYddz9+PtETWmyJCSVDZ5Pro+HmGoYmiQwhMWKScFDdOmhZFB9uP43khCAtm6Qdj65INxI0JKSu2sObpl0SBjID/3TaknRAhIkEWEfLUxnJCja3QD0DLv93j7ivhphpQQcgZiA1if14c616KUEoI9t/8YfJTokKZZQIcP6P0aaN8A0PyFDttxcsswlNy0RFs7RqxHyc0fYWX2a1hT/IJwrJgyFwuuXqWadkXWG7rk0SF7V0pDjMBlPRjRXEldXyHiw6278NxrOaqAkk359NHH8fXqqxTzbls2Dlv+/he8f31ZWF6kdfvevUMxnQ7wo+fhdU9NmZYgMH2ZKiE0uaRDM8RnqbZLm5iw8xHr0fhm7CPC5C5/vmgiNs6ag5o/PIODJbcakkmUTfPoZ+emjhCt8B2DM33yWi0lhPohmqAYqATxy5NtTgkhQqyttHmSnwvNlU6jSEB63Zg7cq2ihux8dkZaEtLndaF9gxMHq4egtco2JOmkCIHPchKkvykgwUBNPVk3FG+NWK9IiPeJRw3la0SWWNMQEXy5HQ2l/d+mSvuU5BPC5Tyvaj8oHMcAIZRGzUtaPH4JTmxM2hiVZhkOrbkwRIRISLDC8UQKCMmrUCVEp6srJY9cV6ndkJ9TP2L/oomaYEnzTMR52/pIMoiUQJn9/eQTEizwqxKy9RLDgEWbCZSTQr8/uMEjeE/869lJmk8/ZRN761zgyk41U6J2CIR4HLXJJ4Qv4BQJ4YsNk0E1+VjNlXhn1GpVLYlG0HvjlqEq77/w/+MhHPjgtsQNJPpcOFITXTsEQpbadqaAkKL9yoQUmCKESNn+rwd0EyInaf6Yaqwu/I8wNxLvefZ9K4dE2I6Qlnjse5NPSNSw0IExLYq1NWjQQ+m8bmyY+ZRpUkSSyO4cWBy/TmFTpUOZkKW2L9OLEAp8NkvIQHrSlHmj9TdfIhHSIw2bbHtqZlxkC1akGyG0wFLa75CeUxR6nAihfCiK5JMHnwQ1QVKAjZ4TyWblUzLo/c2WLQVNFp+vbNRN9EHUgOquvUwYx6Km7MMJH6p2INXIoqndIxXG+0kkY8heDHQGpb8DHvuOFDRZ06O7vbReI37rM1Rr8vENl6Nl/mR4n3gEK7JfB03TqhEhvbe2+N+qeatWjM2sBiGpcHs5hY6hqZVLp/x8NUCU7tGwC7m7tY/MVh0PI2LmXbXasFvcWetUJyQlHUNawC+1G3RubE2f4ZqqRAxdb1t+LahfItUK+fmXpcYi7JV66GKzxXkcs5PfZNXfMz1ECI3smggJVQPWzL36FwtUCWldYMz52F+l0gcptYNPyeDi7ruGgXZIEIhISnCzbk067LlRnZCFd+rOkyqIdGRX1ArpMbjUdmHSNYReCB/bbKYGa6XtrjU+HkZ5N711ryohhz036Caka5OGQS+1f54SMvoJcS7QAtXIfWr/PZMWCGAuue0DbH1ypu6w0J5PL1YMNSVbQmNlvZ9drJuQL1ZrNFfl9tRFnggbucSxA0jkUcTJR7eWRNRs6q2vve95NP7vXnSuVQ7U7vMOxb6Fk8IW8siNOf1elfeKbjJoVlCrueLKHfmp05A62znwuY4Z0QKlNBREHQ1A+TWady+7cyGWT3tDCAEigMsmL4i5L0LusZIMStdpZlBqK+Tn9R57V3Plr36YMkKEZot21YmjllCIjhz8eP8mTTMis+qAYqkdnMdWmlIyBEK87C1GCqeUhuJu519VlTBSyDb1bNJvO7S0g7SF99hvTz0hJcwZ8LIBJYCNXOdfyzY0QaWlSTR5ReNhemU6WeeC6uiuMJ5l25s2aw7hd+XrLaTW80dXjBXmQ2JdC6JGBvXY97xYZHgxqJZnRdoRrLTdl3LtEAVA3fAz4WP3aoFs5P7xDcMFMCkeV8+8CM190NKD/sU6+rVClLVjo7ohHzDsn3PLHd8W8UiLI7zuXLEQiTqSS0xeGPdqrjBvvnj80qi2puGlfBCRZuXo2cJqurmC7SizF6QFCVIhhN3hvK4asyDoSU+ubrSmKh6rcMlu7F2mMis4MA8S8Ng+S8tFn0QOtrmGwcd26wHVzLOJIoQ6gC0rtMlo8Nh6myvtw6UVM+3OhZ3Y4tgvUSOMAq+jaYiZjQNIM2Iig9zc8iH/TDsC5AIBzDfhc1WpARmve745syIIMbO1BtmMWJopwZB7HBvTxs2VkyD/TRuzwEc7sZmbAdRKT6PB0tW5ZjafIW9Ka5xqwKOi4ZODLVUZtvUfvM5fw+ts0wLV7H3yvGj9euDlPEPhpNRExdLPCJGxxNbRVO4YKa+EGfEbW53Xwus6bhb0RKWn4RDtHrg0ftfW3bjccWtGgK8kJG2LB2F7vMQ2X7GSJi6s0RooDGlEKMzHdiJYYbtHqZwZdV3QFJ+rPVbQEvEczfTRWg4ddiI01F6/1NbZWOn4XUaBriUsvOzwZBh6IrN7MwsK1aHoEApIMEKCREMONi0bcqVW+TLyPnyOc+Fzr4yHBtD6DFoSQFHo1PyQLVAP75TaghjPPY6N+5Y7fpmRYMcqdH8/hX0MPtr8y5hdOfqxM/7gh2wFkWXroU4fyRpruTL+OWxzOuFlq/WSEm1Nn6R5CbX7Rq8FSm2b9i53XJrxABspgDAg6XNlxTp0H8usnVEiGjy2Vr7MXpC2A4VGADaapn8+hYhx71HSmFgiPoyQESizNzdV2B/YVZJGG5AZBTLe6WhsCH7XzfC53pdHs8RTOyg6hAISaA78tLITZgjDJsf34XVPhdf9DkVI0g4JRjRATBPw2PbRcmWKm2oqPd/6UzAz5FBa2q6iqdx2N19mnyMA67F/ypXZt9d77M0NpRccpi+d07WAx1Hb/4xjdrDcdnewIgVbXZgtsJXeQsBCwELAQsBCYBAhQP8neCbDMN9hGOZ7DMOcwzDMTwa+P2cYRvql8Sb6Sq/Rufg8paU8KC/K8/T8r0KVykGgEEgEmp1hGPrzYPrvwNEMw4xlGIb+xeaWBH/pHfQueie9m2QgWUgmko1kHJQf2oKbCskyDEPD2NcnGOh4EkmykswkO5UhY0miP/y9YKD2TcggArTIpLKQRp3PMJnzp8Y/yjAt0CJB6f51DMNQWdP+Q22xUiEG23Uqa9p/aEN6N8MwtA/6YCNALA+VjcqY+s33dVQHMubnMQxDsa/J8JpEsBJ1pDJQWahM6fNfIToIkT/6XYm3RW7m1QzD0N+ZJgpAo/mSTCQbySh6VyT7afOh2kZ+/08HOnfUF6Dm4JKBGklRgmMYhrmGYZhxA9pGtVX8yoEXr4tHSkNpKQ/Ki2o55U3voHdRh5LeTTKkvOb/H2H1zf1qHpZOAAAAAElFTkSuQmCC;" vertex="1" parent="1">
          <mxGeometry x="315" y="532.5" width="50" height="50" as="geometry" />
        </mxCell>
        <mxCell id="Y49z8xyqxoSdH-bz4BjA-32" value="" style="shape=image;verticalLabelPosition=bottom;labelBackgroundColor=default;verticalAlign=top;aspect=fixed;imageAspect=0;image=data:image/png,iVBORw0KGgoAAAANSUhEUgAAAGQAAABkCAYAAABw4pVUAAAAAXNSR0IArs4c6QAADidJREFUeAHtXQt0FNUZntZq7WlP7cuetqf26O7izi5YH4gCUkXqA0UrilRUyIu8lNYWRT3taVVo1R4ftVrfVeShKFHI5sEr4RFEIkJ2lzfJzmxCEgREDiGaEEhCvp5/kllmZ3dmdmb2GWbP2TOzM3Pv/Pf77n///97737sMY30sBCwELAQsBCwELAQsBCwELAQsBCwELAQsBCwELAQsBCwELAQsBCwELASShgCCORehISsfXPZz4HLLwRVsBVfQAL5oP7jio+CKjoIv3C9cC073C8/wWc+ifkoedt81LGmCDtYXgcs9F9y0mQjkVIIv+hLB+2D4u2ciUMe2wudcAD+bDf8lPxisuMW1XFg39luoz5oKPr8aweIThgmQk7djLOBzSb9d8LsWw++agBLmjLgWYjBkhqacs8HlzgRf1BI3EkRSuOmAb6iUjPDzOlcj/K4/Yd35Zw8GLE2VAWC+AT7nYfCFh+JOhEhIpHaEExLSHGcL/GwOyWSqUJmaGHzuaHCF2xNGBBGye4IC+GHNl/yZLfA5L89UXHXLLdgJLu8V8MW9CSODLwB2jpMDreM32wM/+/igty/g7z8PXMFnUYloeghoqwJOdgF9J4AjFbF5VQQ+lwcEsoD6ycDO6wD/RTrAV9WWdfA5f6G71mVCAjTc+1twhW2RZMwADn8InOxExGffM6dIIeNcP6kf8O2jga2Xxgt0jXzYA4OuCUMg5w7wxZ0RZLTOAY43RfAQunDwTWD3LcC2KzRAU63l5tN62Q54h47PhIqvKSMacgrAF/VEkHFofn/TFEJfdtLbDmwfYx7MkBdlkjQvewI+dpJmgdP5gQHN6A4nYwbQvl6Gvuxnew2wa3z6kBEile2Gl70xnTFXlA3108aBLzoWRkbjA0CHX4a+5GdXAAhM1UXEyc0XoXneFAReno6vqn6jK62s9x5jWrYTPnaUYsHT8Qbqp10QYcAb/wgc2y1BX3La1wvsf1m3d9RdeylK73gPb13+sfB9Z+QaNL19T4zAmmnC2APY7P5ZOmIfIRMw+Qxw+VvCNCM4A+jwShiQnPYc6XdbQ81C7ED55jwcIkMk5d1rl6GvTmWoxMB7FDRpXUb0U0CdPnHYQjySTYj26eKBmIc2IomqLngpghAi5uvqZDkD7GMRNTKdLmBP1qiIHjh5U9E+nTuAbSNNNS+rcl+NSkj7ymtM5augEVHyZHvgG3pxOnEQkqW/qSrcEaYdLbOBvu5IOro4YPuoKAWM1AI1cFJPiAvwuzak5YCkMGorNlHCcQZwvDGSjJ7DppopIog8q0NLbsbSiYuiasjmv/0VrQvvxIlPLjNNulqFkNzLCtXMdDjBrslngSv8Ikw7DpdEktHXo9utFQtNhrp53l2ozn8R5E2JRlztOPeKGlTePRd7XigCeWRiXvE/Oluwy31WOnAhyAAu69EwMmigsLcjkhBybQ14OV98NAGeSQtjIkGJoPljVmHb038WtMuIDJppvO7ctCBEGE7nC1vDCGlbGUnGsXrd/QwCYddz9+PtETWmyJCSVDZ5Pro+HmGoYmiQwhMWKScFDdOmhZFB9uP43khCAtm6Qdj65INxI0JKSu2sObpl0SBjID/3TaknRAhIkEWEfLUxnJCja3QD0DLv93j7ivhphpQQcgZiA1if14c616KUEoI9t/8YfJTokKZZQIcP6P0aaN8A0PyFDttxcsswlNy0RFs7RqxHyc0fYWX2a1hT/IJwrJgyFwuuXqWadkXWG7rk0SF7V0pDjMBlPRjRXEldXyHiw6278NxrOaqAkk359NHH8fXqqxTzbls2Dlv+/he8f31ZWF6kdfvevUMxnQ7wo+fhdU9NmZYgMH2ZKiE0uaRDM8RnqbZLm5iw8xHr0fhm7CPC5C5/vmgiNs6ag5o/PIODJbcakkmUTfPoZ+emjhCt8B2DM33yWi0lhPohmqAYqATxy5NtTgkhQqyttHmSnwvNlU6jSEB63Zg7cq2ihux8dkZaEtLndaF9gxMHq4egtco2JOmkCIHPchKkvykgwUBNPVk3FG+NWK9IiPeJRw3la0SWWNMQEXy5HQ2l/d+mSvuU5BPC5Tyvaj8oHMcAIZRGzUtaPH4JTmxM2hiVZhkOrbkwRIRISLDC8UQKCMmrUCVEp6srJY9cV6ndkJ9TP2L/oomaYEnzTMR52/pIMoiUQJn9/eQTEizwqxKy9RLDgEWbCZSTQr8/uMEjeE/869lJmk8/ZRN761zgyk41U6J2CIR4HLXJJ4Qv4BQJ4YsNk0E1+VjNlXhn1GpVLYlG0HvjlqEq77/w/+MhHPjgtsQNJPpcOFITXTsEQpbadqaAkKL9yoQUmCKESNn+rwd0EyInaf6Yaqwu/I8wNxLvefZ9K4dE2I6Qlnjse5NPSNSw0IExLYq1NWjQQ+m8bmyY+ZRpUkSSyO4cWBy/TmFTpUOZkKW2L9OLEAp8NkvIQHrSlHmj9TdfIhHSIw2bbHtqZlxkC1akGyG0wFLa75CeUxR6nAihfCiK5JMHnwQ1QVKAjZ4TyWblUzLo/c2WLQVNFp+vbNRN9EHUgOquvUwYx6Km7MMJH6p2INXIoqndIxXG+0kkY8heDHQGpb8DHvuOFDRZ06O7vbReI37rM1Rr8vENl6Nl/mR4n3gEK7JfB03TqhEhvbe2+N+qeatWjM2sBiGpcHs5hY6hqZVLp/x8NUCU7tGwC7m7tY/MVh0PI2LmXbXasFvcWetUJyQlHUNawC+1G3RubE2f4ZqqRAxdb1t+LahfItUK+fmXpcYi7JV66GKzxXkcs5PfZNXfMz1ECI3smggJVQPWzL36FwtUCWldYMz52F+l0gcptYNPyeDi7ruGgXZIEIhISnCzbk067LlRnZCFd+rOkyqIdGRX1ArpMbjUdmHSNYReCB/bbKYGa6XtrjU+HkZ5N711ryohhz036Caka5OGQS+1f54SMvoJcS7QAtXIfWr/PZMWCGAuue0DbH1ypu6w0J5PL1YMNSVbQmNlvZ9drJuQL1ZrNFfl9tRFnggbucSxA0jkUcTJR7eWRNRs6q2vve95NP7vXnSuVQ7U7vMOxb6Fk8IW8siNOf1elfeKbjJoVlCrueLKHfmp05A62znwuY4Z0QKlNBREHQ1A+TWady+7cyGWT3tDCAEigMsmL4i5L0LusZIMStdpZlBqK+Tn9R57V3Plr36YMkKEZot21YmjllCIjhz8eP8mTTMis+qAYqkdnMdWmlIyBEK87C1GCqeUhuJu519VlTBSyDb1bNJvO7S0g7SF99hvTz0hJcwZ8LIBJYCNXOdfyzY0QaWlSTR5ReNhemU6WeeC6uiuMJ5l25s2aw7hd+XrLaTW80dXjBXmQ2JdC6JGBvXY97xYZHgxqJZnRdoRrLTdl3LtEAVA3fAz4WP3aoFs5P7xDcMFMCkeV8+8CM190NKD/sU6+rVClLVjo7ohHzDsn3PLHd8W8UiLI7zuXLEQiTqSS0xeGPdqrjBvvnj80qi2puGlfBCRZuXo2cJqurmC7SizF6QFCVIhhN3hvK4asyDoSU+ubrSmKh6rcMlu7F2mMis4MA8S8Ng+S8tFn0QOtrmGwcd26wHVzLOJIoQ6gC0rtMlo8Nh6myvtw6UVM+3OhZ3Y4tgvUSOMAq+jaYiZjQNIM2Iig9zc8iH/TDsC5AIBzDfhc1WpARmve745syIIMbO1BtmMWJopwZB7HBvTxs2VkyD/TRuzwEc7sZmbAdRKT6PB0tW5ZjafIW9Ka5xqwKOi4ZODLVUZtvUfvM5fw+ts0wLV7H3yvGj9euDlPEPhpNRExdLPCJGxxNbRVO4YKa+EGfEbW53Xwus6bhb0RKWn4RDtHrg0ftfW3bjccWtGgK8kJG2LB2F7vMQ2X7GSJi6s0RooDGlEKMzHdiJYYbtHqZwZdV3QFJ+rPVbQEvEczfTRWg4ddiI01F6/1NbZWOn4XUaBriUsvOzwZBh6IrN7MwsK1aHoEApIMEKCREMONi0bcqVW+TLyPnyOc+Fzr4yHBtD6DFoSQFHo1PyQLVAP75TaghjPPY6N+5Y7fpmRYMcqdH8/hX0MPtr8y5hdOfqxM/7gh2wFkWXroU4fyRpruTL+OWxzOuFlq/WSEm1Nn6R5CbX7Rq8FSm2b9i53XJrxABspgDAg6XNlxTp0H8usnVEiGjy2Vr7MXpC2A4VGADaapn8+hYhx71HSmFgiPoyQESizNzdV2B/YVZJGG5AZBTLe6WhsCH7XzfC53pdHs8RTOyg6hAISaA78tLITZgjDJsf34XVPhdf9DkVI0g4JRjRATBPw2PbRcmWKm2oqPd/6UzAz5FBa2q6iqdx2N19mnyMA67F/ypXZt9d77M0NpRccpi+d07WAx1Hb/4xjdrDcdnewIgVbXZgtsJXeQsBCwELAQsBCYBAhQP8neCbDMN9hGOZ7DMOcwzDMTwa+P2cYRvql8Sb6Sq/Rufg8paU8KC/K8/T8r0KVykGgEEgEmp1hGPrzYPrvwNEMw4xlGIb+xeaWBH/pHfQueie9m2QgWUgmko1kHJQf2oKbCskyDEPD2NcnGOh4EkmykswkO5UhY0miP/y9YKD2TcggArTIpLKQRp3PMJnzp8Y/yjAt0CJB6f51DMNQWdP+Q22xUiEG23Uqa9p/aEN6N8MwtA/6YCNALA+VjcqY+s33dVQHMubnMQxDsa/J8JpEsBJ1pDJQWahM6fNfIToIkT/6XYm3RW7m1QzD0N+ZJgpAo/mSTCQbySh6VyT7afOh2kZ+/08HOnfUF6Dm4JKBGklRgmMYhrmGYZhxA9pGtVX8yoEXr4tHSkNpKQ/Ki2o55U3voHdRh5LeTTKkvOb/H2H1zf1qHpZOAAAAAElFTkSuQmCC;" vertex="1" parent="1">
          <mxGeometry x="395" y="532.5" width="50" height="50" as="geometry" />
        </mxCell>
        <mxCell id="Y49z8xyqxoSdH-bz4BjA-33" value="" style="shape=image;verticalLabelPosition=bottom;labelBackgroundColor=default;verticalAlign=top;aspect=fixed;imageAspect=0;image=data:image/png,iVBORw0KGgoAAAANSUhEUgAAAGQAAABkCAYAAABw4pVUAAAAAXNSR0IArs4c6QAADidJREFUeAHtXQt0FNUZntZq7WlP7cuetqf26O7izi5YH4gCUkXqA0UrilRUyIu8lNYWRT3taVVo1R4ftVrfVeShKFHI5sEr4RFEIkJ2lzfJzmxCEgREDiGaEEhCvp5/kllmZ3dmdmb2GWbP2TOzM3Pv/Pf77n///97737sMY30sBCwELAQsBCwELAQsBCwELAQsBCwELAQsBCwELAQsBCwELAQsBCwELASShgCCORehISsfXPZz4HLLwRVsBVfQAL5oP7jio+CKjoIv3C9cC073C8/wWc+ifkoedt81LGmCDtYXgcs9F9y0mQjkVIIv+hLB+2D4u2ciUMe2wudcAD+bDf8lPxisuMW1XFg39luoz5oKPr8aweIThgmQk7djLOBzSb9d8LsWw++agBLmjLgWYjBkhqacs8HlzgRf1BI3EkRSuOmAb6iUjPDzOlcj/K4/Yd35Zw8GLE2VAWC+AT7nYfCFh+JOhEhIpHaEExLSHGcL/GwOyWSqUJmaGHzuaHCF2xNGBBGye4IC+GHNl/yZLfA5L89UXHXLLdgJLu8V8MW9CSODLwB2jpMDreM32wM/+/igty/g7z8PXMFnUYloeghoqwJOdgF9J4AjFbF5VQQ+lwcEsoD6ycDO6wD/RTrAV9WWdfA5f6G71mVCAjTc+1twhW2RZMwADn8InOxExGffM6dIIeNcP6kf8O2jga2Xxgt0jXzYA4OuCUMg5w7wxZ0RZLTOAY43RfAQunDwTWD3LcC2KzRAU63l5tN62Q54h47PhIqvKSMacgrAF/VEkHFofn/TFEJfdtLbDmwfYx7MkBdlkjQvewI+dpJmgdP5gQHN6A4nYwbQvl6Gvuxnew2wa3z6kBEile2Gl70xnTFXlA3108aBLzoWRkbjA0CHX4a+5GdXAAhM1UXEyc0XoXneFAReno6vqn6jK62s9x5jWrYTPnaUYsHT8Qbqp10QYcAb/wgc2y1BX3La1wvsf1m3d9RdeylK73gPb13+sfB9Z+QaNL19T4zAmmnC2APY7P5ZOmIfIRMw+Qxw+VvCNCM4A+jwShiQnPYc6XdbQ81C7ED55jwcIkMk5d1rl6GvTmWoxMB7FDRpXUb0U0CdPnHYQjySTYj26eKBmIc2IomqLngpghAi5uvqZDkD7GMRNTKdLmBP1qiIHjh5U9E+nTuAbSNNNS+rcl+NSkj7ymtM5augEVHyZHvgG3pxOnEQkqW/qSrcEaYdLbOBvu5IOro4YPuoKAWM1AI1cFJPiAvwuzak5YCkMGorNlHCcQZwvDGSjJ7DppopIog8q0NLbsbSiYuiasjmv/0VrQvvxIlPLjNNulqFkNzLCtXMdDjBrslngSv8Ikw7DpdEktHXo9utFQtNhrp53l2ozn8R5E2JRlztOPeKGlTePRd7XigCeWRiXvE/Oluwy31WOnAhyAAu69EwMmigsLcjkhBybQ14OV98NAGeSQtjIkGJoPljVmHb038WtMuIDJppvO7ctCBEGE7nC1vDCGlbGUnGsXrd/QwCYddz9+PtETWmyJCSVDZ5Pro+HmGoYmiQwhMWKScFDdOmhZFB9uP43khCAtm6Qdj65INxI0JKSu2sObpl0SBjID/3TaknRAhIkEWEfLUxnJCja3QD0DLv93j7ivhphpQQcgZiA1if14c616KUEoI9t/8YfJTokKZZQIcP6P0aaN8A0PyFDttxcsswlNy0RFs7RqxHyc0fYWX2a1hT/IJwrJgyFwuuXqWadkXWG7rk0SF7V0pDjMBlPRjRXEldXyHiw6278NxrOaqAkk359NHH8fXqqxTzbls2Dlv+/he8f31ZWF6kdfvevUMxnQ7wo+fhdU9NmZYgMH2ZKiE0uaRDM8RnqbZLm5iw8xHr0fhm7CPC5C5/vmgiNs6ag5o/PIODJbcakkmUTfPoZ+emjhCt8B2DM33yWi0lhPohmqAYqATxy5NtTgkhQqyttHmSnwvNlU6jSEB63Zg7cq2ihux8dkZaEtLndaF9gxMHq4egtco2JOmkCIHPchKkvykgwUBNPVk3FG+NWK9IiPeJRw3la0SWWNMQEXy5HQ2l/d+mSvuU5BPC5Tyvaj8oHMcAIZRGzUtaPH4JTmxM2hiVZhkOrbkwRIRISLDC8UQKCMmrUCVEp6srJY9cV6ndkJ9TP2L/oomaYEnzTMR52/pIMoiUQJn9/eQTEizwqxKy9RLDgEWbCZSTQr8/uMEjeE/869lJmk8/ZRN761zgyk41U6J2CIR4HLXJJ4Qv4BQJ4YsNk0E1+VjNlXhn1GpVLYlG0HvjlqEq77/w/+MhHPjgtsQNJPpcOFITXTsEQpbadqaAkKL9yoQUmCKESNn+rwd0EyInaf6Yaqwu/I8wNxLvefZ9K4dE2I6Qlnjse5NPSNSw0IExLYq1NWjQQ+m8bmyY+ZRpUkSSyO4cWBy/TmFTpUOZkKW2L9OLEAp8NkvIQHrSlHmj9TdfIhHSIw2bbHtqZlxkC1akGyG0wFLa75CeUxR6nAihfCiK5JMHnwQ1QVKAjZ4TyWblUzLo/c2WLQVNFp+vbNRN9EHUgOquvUwYx6Km7MMJH6p2INXIoqndIxXG+0kkY8heDHQGpb8DHvuOFDRZ06O7vbReI37rM1Rr8vENl6Nl/mR4n3gEK7JfB03TqhEhvbe2+N+qeatWjM2sBiGpcHs5hY6hqZVLp/x8NUCU7tGwC7m7tY/MVh0PI2LmXbXasFvcWetUJyQlHUNawC+1G3RubE2f4ZqqRAxdb1t+LahfItUK+fmXpcYi7JV66GKzxXkcs5PfZNXfMz1ECI3smggJVQPWzL36FwtUCWldYMz52F+l0gcptYNPyeDi7ruGgXZIEIhISnCzbk067LlRnZCFd+rOkyqIdGRX1ArpMbjUdmHSNYReCB/bbKYGa6XtrjU+HkZ5N711ryohhz036Caka5OGQS+1f54SMvoJcS7QAtXIfWr/PZMWCGAuue0DbH1ypu6w0J5PL1YMNSVbQmNlvZ9drJuQL1ZrNFfl9tRFnggbucSxA0jkUcTJR7eWRNRs6q2vve95NP7vXnSuVQ7U7vMOxb6Fk8IW8siNOf1elfeKbjJoVlCrueLKHfmp05A62znwuY4Z0QKlNBREHQ1A+TWady+7cyGWT3tDCAEigMsmL4i5L0LusZIMStdpZlBqK+Tn9R57V3Plr36YMkKEZot21YmjllCIjhz8eP8mTTMis+qAYqkdnMdWmlIyBEK87C1GCqeUhuJu519VlTBSyDb1bNJvO7S0g7SF99hvTz0hJcwZ8LIBJYCNXOdfyzY0QaWlSTR5ReNhemU6WeeC6uiuMJ5l25s2aw7hd+XrLaTW80dXjBXmQ2JdC6JGBvXY97xYZHgxqJZnRdoRrLTdl3LtEAVA3fAz4WP3aoFs5P7xDcMFMCkeV8+8CM190NKD/sU6+rVClLVjo7ohHzDsn3PLHd8W8UiLI7zuXLEQiTqSS0xeGPdqrjBvvnj80qi2puGlfBCRZuXo2cJqurmC7SizF6QFCVIhhN3hvK4asyDoSU+ubrSmKh6rcMlu7F2mMis4MA8S8Ng+S8tFn0QOtrmGwcd26wHVzLOJIoQ6gC0rtMlo8Nh6myvtw6UVM+3OhZ3Y4tgvUSOMAq+jaYiZjQNIM2Iig9zc8iH/TDsC5AIBzDfhc1WpARmve745syIIMbO1BtmMWJopwZB7HBvTxs2VkyD/TRuzwEc7sZmbAdRKT6PB0tW5ZjafIW9Ka5xqwKOi4ZODLVUZtvUfvM5fw+ts0wLV7H3yvGj9euDlPEPhpNRExdLPCJGxxNbRVO4YKa+EGfEbW53Xwus6bhb0RKWn4RDtHrg0ftfW3bjccWtGgK8kJG2LB2F7vMQ2X7GSJi6s0RooDGlEKMzHdiJYYbtHqZwZdV3QFJ+rPVbQEvEczfTRWg4ddiI01F6/1NbZWOn4XUaBriUsvOzwZBh6IrN7MwsK1aHoEApIMEKCREMONi0bcqVW+TLyPnyOc+Fzr4yHBtD6DFoSQFHo1PyQLVAP75TaghjPPY6N+5Y7fpmRYMcqdH8/hX0MPtr8y5hdOfqxM/7gh2wFkWXroU4fyRpruTL+OWxzOuFlq/WSEm1Nn6R5CbX7Rq8FSm2b9i53XJrxABspgDAg6XNlxTp0H8usnVEiGjy2Vr7MXpC2A4VGADaapn8+hYhx71HSmFgiPoyQESizNzdV2B/YVZJGG5AZBTLe6WhsCH7XzfC53pdHs8RTOyg6hAISaA78tLITZgjDJsf34XVPhdf9DkVI0g4JRjRATBPw2PbRcmWKm2oqPd/6UzAz5FBa2q6iqdx2N19mnyMA67F/ypXZt9d77M0NpRccpi+d07WAx1Hb/4xjdrDcdnewIgVbXZgtsJXeQsBCwELAQsBCYBAhQP8neCbDMN9hGOZ7DMOcwzDMTwa+P2cYRvql8Sb6Sq/Rufg8paU8KC/K8/T8r0KVykGgEEgEmp1hGPrzYPrvwNEMw4xlGIb+xeaWBH/pHfQueie9m2QgWUgmko1kHJQf2oKbCskyDEPD2NcnGOh4EkmykswkO5UhY0miP/y9YKD2TcggArTIpLKQRp3PMJnzp8Y/yjAt0CJB6f51DMNQWdP+Q22xUiEG23Uqa9p/aEN6N8MwtA/6YCNALA+VjcqY+s33dVQHMubnMQxDsa/J8JpEsBJ1pDJQWahM6fNfIToIkT/6XYm3RW7m1QzD0N+ZJgpAo/mSTCQbySh6VyT7afOh2kZ+/08HOnfUF6Dm4JKBGklRgmMYhrmGYZhxA9pGtVX8yoEXr4tHSkNpKQ/Ki2o55U3voHdRh5LeTTKkvOb/H2H1zf1qHpZOAAAAAElFTkSuQmCC;" vertex="1" parent="1">
          <mxGeometry x="477.5" y="295" width="50" height="50" as="geometry" />
        </mxCell>
        <mxCell id="Y49z8xyqxoSdH-bz4BjA-34" value="" style="shape=image;verticalLabelPosition=bottom;labelBackgroundColor=default;verticalAlign=top;aspect=fixed;imageAspect=0;image=data:image/png,iVBORw0KGgoAAAANSUhEUgAAAGQAAABkCAYAAABw4pVUAAAAAXNSR0IArs4c6QAADidJREFUeAHtXQt0FNUZntZq7WlP7cuetqf26O7izi5YH4gCUkXqA0UrilRUyIu8lNYWRT3taVVo1R4ftVrfVeShKFHI5sEr4RFEIkJ2lzfJzmxCEgREDiGaEEhCvp5/kllmZ3dmdmb2GWbP2TOzM3Pv/Pf77n///97737sMY30sBCwELAQsBCwELAQsBCwELAQsBCwELAQsBCwELAQsBCwELAQsBCwELASShgCCORehISsfXPZz4HLLwRVsBVfQAL5oP7jio+CKjoIv3C9cC073C8/wWc+ifkoedt81LGmCDtYXgcs9F9y0mQjkVIIv+hLB+2D4u2ciUMe2wudcAD+bDf8lPxisuMW1XFg39luoz5oKPr8aweIThgmQk7djLOBzSb9d8LsWw++agBLmjLgWYjBkhqacs8HlzgRf1BI3EkRSuOmAb6iUjPDzOlcj/K4/Yd35Zw8GLE2VAWC+AT7nYfCFh+JOhEhIpHaEExLSHGcL/GwOyWSqUJmaGHzuaHCF2xNGBBGye4IC+GHNl/yZLfA5L89UXHXLLdgJLu8V8MW9CSODLwB2jpMDreM32wM/+/igty/g7z8PXMFnUYloeghoqwJOdgF9J4AjFbF5VQQ+lwcEsoD6ycDO6wD/RTrAV9WWdfA5f6G71mVCAjTc+1twhW2RZMwADn8InOxExGffM6dIIeNcP6kf8O2jga2Xxgt0jXzYA4OuCUMg5w7wxZ0RZLTOAY43RfAQunDwTWD3LcC2KzRAU63l5tN62Q54h47PhIqvKSMacgrAF/VEkHFofn/TFEJfdtLbDmwfYx7MkBdlkjQvewI+dpJmgdP5gQHN6A4nYwbQvl6Gvuxnew2wa3z6kBEile2Gl70xnTFXlA3108aBLzoWRkbjA0CHX4a+5GdXAAhM1UXEyc0XoXneFAReno6vqn6jK62s9x5jWrYTPnaUYsHT8Qbqp10QYcAb/wgc2y1BX3La1wvsf1m3d9RdeylK73gPb13+sfB9Z+QaNL19T4zAmmnC2APY7P5ZOmIfIRMw+Qxw+VvCNCM4A+jwShiQnPYc6XdbQ81C7ED55jwcIkMk5d1rl6GvTmWoxMB7FDRpXUb0U0CdPnHYQjySTYj26eKBmIc2IomqLngpghAi5uvqZDkD7GMRNTKdLmBP1qiIHjh5U9E+nTuAbSNNNS+rcl+NSkj7ymtM5augEVHyZHvgG3pxOnEQkqW/qSrcEaYdLbOBvu5IOro4YPuoKAWM1AI1cFJPiAvwuzak5YCkMGorNlHCcQZwvDGSjJ7DppopIog8q0NLbsbSiYuiasjmv/0VrQvvxIlPLjNNulqFkNzLCtXMdDjBrslngSv8Ikw7DpdEktHXo9utFQtNhrp53l2ozn8R5E2JRlztOPeKGlTePRd7XigCeWRiXvE/Oluwy31WOnAhyAAu69EwMmigsLcjkhBybQ14OV98NAGeSQtjIkGJoPljVmHb038WtMuIDJppvO7ctCBEGE7nC1vDCGlbGUnGsXrd/QwCYddz9+PtETWmyJCSVDZ5Pro+HmGoYmiQwhMWKScFDdOmhZFB9uP43khCAtm6Qdj65INxI0JKSu2sObpl0SBjID/3TaknRAhIkEWEfLUxnJCja3QD0DLv93j7ivhphpQQcgZiA1if14c616KUEoI9t/8YfJTokKZZQIcP6P0aaN8A0PyFDttxcsswlNy0RFs7RqxHyc0fYWX2a1hT/IJwrJgyFwuuXqWadkXWG7rk0SF7V0pDjMBlPRjRXEldXyHiw6278NxrOaqAkk359NHH8fXqqxTzbls2Dlv+/he8f31ZWF6kdfvevUMxnQ7wo+fhdU9NmZYgMH2ZKiE0uaRDM8RnqbZLm5iw8xHr0fhm7CPC5C5/vmgiNs6ag5o/PIODJbcakkmUTfPoZ+emjhCt8B2DM33yWi0lhPohmqAYqATxy5NtTgkhQqyttHmSnwvNlU6jSEB63Zg7cq2ihux8dkZaEtLndaF9gxMHq4egtco2JOmkCIHPchKkvykgwUBNPVk3FG+NWK9IiPeJRw3la0SWWNMQEXy5HQ2l/d+mSvuU5BPC5Tyvaj8oHMcAIZRGzUtaPH4JTmxM2hiVZhkOrbkwRIRISLDC8UQKCMmrUCVEp6srJY9cV6ndkJ9TP2L/oomaYEnzTMR52/pIMoiUQJn9/eQTEizwqxKy9RLDgEWbCZSTQr8/uMEjeE/869lJmk8/ZRN761zgyk41U6J2CIR4HLXJJ4Qv4BQJ4YsNk0E1+VjNlXhn1GpVLYlG0HvjlqEq77/w/+MhHPjgtsQNJPpcOFITXTsEQpbadqaAkKL9yoQUmCKESNn+rwd0EyInaf6Yaqwu/I8wNxLvefZ9K4dE2I6Qlnjse5NPSNSw0IExLYq1NWjQQ+m8bmyY+ZRpUkSSyO4cWBy/TmFTpUOZkKW2L9OLEAp8NkvIQHrSlHmj9TdfIhHSIw2bbHtqZlxkC1akGyG0wFLa75CeUxR6nAihfCiK5JMHnwQ1QVKAjZ4TyWblUzLo/c2WLQVNFp+vbNRN9EHUgOquvUwYx6Km7MMJH6p2INXIoqndIxXG+0kkY8heDHQGpb8DHvuOFDRZ06O7vbReI37rM1Rr8vENl6Nl/mR4n3gEK7JfB03TqhEhvbe2+N+qeatWjM2sBiGpcHs5hY6hqZVLp/x8NUCU7tGwC7m7tY/MVh0PI2LmXbXasFvcWetUJyQlHUNawC+1G3RubE2f4ZqqRAxdb1t+LahfItUK+fmXpcYi7JV66GKzxXkcs5PfZNXfMz1ECI3smggJVQPWzL36FwtUCWldYMz52F+l0gcptYNPyeDi7ruGgXZIEIhISnCzbk067LlRnZCFd+rOkyqIdGRX1ArpMbjUdmHSNYReCB/bbKYGa6XtrjU+HkZ5N711ryohhz036Caka5OGQS+1f54SMvoJcS7QAtXIfWr/PZMWCGAuue0DbH1ypu6w0J5PL1YMNSVbQmNlvZ9drJuQL1ZrNFfl9tRFnggbucSxA0jkUcTJR7eWRNRs6q2vve95NP7vXnSuVQ7U7vMOxb6Fk8IW8siNOf1elfeKbjJoVlCrueLKHfmp05A62znwuY4Z0QKlNBREHQ1A+TWady+7cyGWT3tDCAEigMsmL4i5L0LusZIMStdpZlBqK+Tn9R57V3Plr36YMkKEZot21YmjllCIjhz8eP8mTTMis+qAYqkdnMdWmlIyBEK87C1GCqeUhuJu519VlTBSyDb1bNJvO7S0g7SF99hvTz0hJcwZ8LIBJYCNXOdfyzY0QaWlSTR5ReNhemU6WeeC6uiuMJ5l25s2aw7hd+XrLaTW80dXjBXmQ2JdC6JGBvXY97xYZHgxqJZnRdoRrLTdl3LtEAVA3fAz4WP3aoFs5P7xDcMFMCkeV8+8CM190NKD/sU6+rVClLVjo7ohHzDsn3PLHd8W8UiLI7zuXLEQiTqSS0xeGPdqrjBvvnj80qi2puGlfBCRZuXo2cJqurmC7SizF6QFCVIhhN3hvK4asyDoSU+ubrSmKh6rcMlu7F2mMis4MA8S8Ng+S8tFn0QOtrmGwcd26wHVzLOJIoQ6gC0rtMlo8Nh6myvtw6UVM+3OhZ3Y4tgvUSOMAq+jaYiZjQNIM2Iig9zc8iH/TDsC5AIBzDfhc1WpARmve745syIIMbO1BtmMWJopwZB7HBvTxs2VkyD/TRuzwEc7sZmbAdRKT6PB0tW5ZjafIW9Ka5xqwKOi4ZODLVUZtvUfvM5fw+ts0wLV7H3yvGj9euDlPEPhpNRExdLPCJGxxNbRVO4YKa+EGfEbW53Xwus6bhb0RKWn4RDtHrg0ftfW3bjccWtGgK8kJG2LB2F7vMQ2X7GSJi6s0RooDGlEKMzHdiJYYbtHqZwZdV3QFJ+rPVbQEvEczfTRWg4ddiI01F6/1NbZWOn4XUaBriUsvOzwZBh6IrN7MwsK1aHoEApIMEKCREMONi0bcqVW+TLyPnyOc+Fzr4yHBtD6DFoSQFHo1PyQLVAP75TaghjPPY6N+5Y7fpmRYMcqdH8/hX0MPtr8y5hdOfqxM/7gh2wFkWXroU4fyRpruTL+OWxzOuFlq/WSEm1Nn6R5CbX7Rq8FSm2b9i53XJrxABspgDAg6XNlxTp0H8usnVEiGjy2Vr7MXpC2A4VGADaapn8+hYhx71HSmFgiPoyQESizNzdV2B/YVZJGG5AZBTLe6WhsCH7XzfC53pdHs8RTOyg6hAISaA78tLITZgjDJsf34XVPhdf9DkVI0g4JRjRATBPw2PbRcmWKm2oqPd/6UzAz5FBa2q6iqdx2N19mnyMA67F/ypXZt9d77M0NpRccpi+d07WAx1Hb/4xjdrDcdnewIgVbXZgtsJXeQsBCwELAQsBCYBAhQP8neCbDMN9hGOZ7DMOcwzDMTwa+P2cYRvql8Sb6Sq/Rufg8paU8KC/K8/T8r0KVykGgEEgEmp1hGPrzYPrvwNEMw4xlGIb+xeaWBH/pHfQueie9m2QgWUgmko1kHJQf2oKbCskyDEPD2NcnGOh4EkmykswkO5UhY0miP/y9YKD2TcggArTIpLKQRp3PMJnzp8Y/yjAt0CJB6f51DMNQWdP+Q22xUiEG23Uqa9p/aEN6N8MwtA/6YCNALA+VjcqY+s33dVQHMubnMQxDsa/J8JpEsBJ1pDJQWahM6fNfIToIkT/6XYm3RW7m1QzD0N+ZJgpAo/mSTCQbySh6VyT7afOh2kZ+/08HOnfUF6Dm4JKBGklRgmMYhrmGYZhxA9pGtVX8yoEXr4tHSkNpKQ/Ki2o55U3voHdRh5LeTTKkvOb/H2H1zf1qHpZOAAAAAElFTkSuQmCC;" vertex="1" parent="1">
          <mxGeometry x="555" y="375" width="50" height="50" as="geometry" />
        </mxCell>
        <mxCell id="Y49z8xyqxoSdH-bz4BjA-35" value="" style="shape=image;verticalLabelPosition=bottom;labelBackgroundColor=default;verticalAlign=top;aspect=fixed;imageAspect=0;image=data:image/png,iVBORw0KGgoAAAANSUhEUgAAAGQAAABkCAYAAABw4pVUAAAAAXNSR0IArs4c6QAADidJREFUeAHtXQt0FNUZntZq7WlP7cuetqf26O7izi5YH4gCUkXqA0UrilRUyIu8lNYWRT3taVVo1R4ftVrfVeShKFHI5sEr4RFEIkJ2lzfJzmxCEgREDiGaEEhCvp5/kllmZ3dmdmb2GWbP2TOzM3Pv/Pf77n///97737sMY30sBCwELAQsBCwELAQsBCwELAQsBCwELAQsBCwELAQsBCwELAQsBCwELASShgCCORehISsfXPZz4HLLwRVsBVfQAL5oP7jio+CKjoIv3C9cC073C8/wWc+ifkoedt81LGmCDtYXgcs9F9y0mQjkVIIv+hLB+2D4u2ciUMe2wudcAD+bDf8lPxisuMW1XFg39luoz5oKPr8aweIThgmQk7djLOBzSb9d8LsWw++agBLmjLgWYjBkhqacs8HlzgRf1BI3EkRSuOmAb6iUjPDzOlcj/K4/Yd35Zw8GLE2VAWC+AT7nYfCFh+JOhEhIpHaEExLSHGcL/GwOyWSqUJmaGHzuaHCF2xNGBBGye4IC+GHNl/yZLfA5L89UXHXLLdgJLu8V8MW9CSODLwB2jpMDreM32wM/+/igty/g7z8PXMFnUYloeghoqwJOdgF9J4AjFbF5VQQ+lwcEsoD6ycDO6wD/RTrAV9WWdfA5f6G71mVCAjTc+1twhW2RZMwADn8InOxExGffM6dIIeNcP6kf8O2jga2Xxgt0jXzYA4OuCUMg5w7wxZ0RZLTOAY43RfAQunDwTWD3LcC2KzRAU63l5tN62Q54h47PhIqvKSMacgrAF/VEkHFofn/TFEJfdtLbDmwfYx7MkBdlkjQvewI+dpJmgdP5gQHN6A4nYwbQvl6Gvuxnew2wa3z6kBEile2Gl70xnTFXlA3108aBLzoWRkbjA0CHX4a+5GdXAAhM1UXEyc0XoXneFAReno6vqn6jK62s9x5jWrYTPnaUYsHT8Qbqp10QYcAb/wgc2y1BX3La1wvsf1m3d9RdeylK73gPb13+sfB9Z+QaNL19T4zAmmnC2APY7P5ZOmIfIRMw+Qxw+VvCNCM4A+jwShiQnPYc6XdbQ81C7ED55jwcIkMk5d1rl6GvTmWoxMB7FDRpXUb0U0CdPnHYQjySTYj26eKBmIc2IomqLngpghAi5uvqZDkD7GMRNTKdLmBP1qiIHjh5U9E+nTuAbSNNNS+rcl+NSkj7ymtM5augEVHyZHvgG3pxOnEQkqW/qSrcEaYdLbOBvu5IOro4YPuoKAWM1AI1cFJPiAvwuzak5YCkMGorNlHCcQZwvDGSjJ7DppopIog8q0NLbsbSiYuiasjmv/0VrQvvxIlPLjNNulqFkNzLCtXMdDjBrslngSv8Ikw7DpdEktHXo9utFQtNhrp53l2ozn8R5E2JRlztOPeKGlTePRd7XigCeWRiXvE/Oluwy31WOnAhyAAu69EwMmigsLcjkhBybQ14OV98NAGeSQtjIkGJoPljVmHb038WtMuIDJppvO7ctCBEGE7nC1vDCGlbGUnGsXrd/QwCYddz9+PtETWmyJCSVDZ5Pro+HmGoYmiQwhMWKScFDdOmhZFB9uP43khCAtm6Qdj65INxI0JKSu2sObpl0SBjID/3TaknRAhIkEWEfLUxnJCja3QD0DLv93j7ivhphpQQcgZiA1if14c616KUEoI9t/8YfJTokKZZQIcP6P0aaN8A0PyFDttxcsswlNy0RFs7RqxHyc0fYWX2a1hT/IJwrJgyFwuuXqWadkXWG7rk0SF7V0pDjMBlPRjRXEldXyHiw6278NxrOaqAkk359NHH8fXqqxTzbls2Dlv+/he8f31ZWF6kdfvevUMxnQ7wo+fhdU9NmZYgMH2ZKiE0uaRDM8RnqbZLm5iw8xHr0fhm7CPC5C5/vmgiNs6ag5o/PIODJbcakkmUTfPoZ+emjhCt8B2DM33yWi0lhPohmqAYqATxy5NtTgkhQqyttHmSnwvNlU6jSEB63Zg7cq2ihux8dkZaEtLndaF9gxMHq4egtco2JOmkCIHPchKkvykgwUBNPVk3FG+NWK9IiPeJRw3la0SWWNMQEXy5HQ2l/d+mSvuU5BPC5Tyvaj8oHMcAIZRGzUtaPH4JTmxM2hiVZhkOrbkwRIRISLDC8UQKCMmrUCVEp6srJY9cV6ndkJ9TP2L/oomaYEnzTMR52/pIMoiUQJn9/eQTEizwqxKy9RLDgEWbCZSTQr8/uMEjeE/869lJmk8/ZRN761zgyk41U6J2CIR4HLXJJ4Qv4BQJ4YsNk0E1+VjNlXhn1GpVLYlG0HvjlqEq77/w/+MhHPjgtsQNJPpcOFITXTsEQpbadqaAkKL9yoQUmCKESNn+rwd0EyInaf6Yaqwu/I8wNxLvefZ9K4dE2I6Qlnjse5NPSNSw0IExLYq1NWjQQ+m8bmyY+ZRpUkSSyO4cWBy/TmFTpUOZkKW2L9OLEAp8NkvIQHrSlHmj9TdfIhHSIw2bbHtqZlxkC1akGyG0wFLa75CeUxR6nAihfCiK5JMHnwQ1QVKAjZ4TyWblUzLo/c2WLQVNFp+vbNRN9EHUgOquvUwYx6Km7MMJH6p2INXIoqndIxXG+0kkY8heDHQGpb8DHvuOFDRZ06O7vbReI37rM1Rr8vENl6Nl/mR4n3gEK7JfB03TqhEhvbe2+N+qeatWjM2sBiGpcHs5hY6hqZVLp/x8NUCU7tGwC7m7tY/MVh0PI2LmXbXasFvcWetUJyQlHUNawC+1G3RubE2f4ZqqRAxdb1t+LahfItUK+fmXpcYi7JV66GKzxXkcs5PfZNXfMz1ECI3smggJVQPWzL36FwtUCWldYMz52F+l0gcptYNPyeDi7ruGgXZIEIhISnCzbk067LlRnZCFd+rOkyqIdGRX1ArpMbjUdmHSNYReCB/bbKYGa6XtrjU+HkZ5N711ryohhz036Caka5OGQS+1f54SMvoJcS7QAtXIfWr/PZMWCGAuue0DbH1ypu6w0J5PL1YMNSVbQmNlvZ9drJuQL1ZrNFfl9tRFnggbucSxA0jkUcTJR7eWRNRs6q2vve95NP7vXnSuVQ7U7vMOxb6Fk8IW8siNOf1elfeKbjJoVlCrueLKHfmp05A62znwuY4Z0QKlNBREHQ1A+TWady+7cyGWT3tDCAEigMsmL4i5L0LusZIMStdpZlBqK+Tn9R57V3Plr36YMkKEZot21YmjllCIjhz8eP8mTTMis+qAYqkdnMdWmlIyBEK87C1GCqeUhuJu519VlTBSyDb1bNJvO7S0g7SF99hvTz0hJcwZ8LIBJYCNXOdfyzY0QaWlSTR5ReNhemU6WeeC6uiuMJ5l25s2aw7hd+XrLaTW80dXjBXmQ2JdC6JGBvXY97xYZHgxqJZnRdoRrLTdl3LtEAVA3fAz4WP3aoFs5P7xDcMFMCkeV8+8CM190NKD/sU6+rVClLVjo7ohHzDsn3PLHd8W8UiLI7zuXLEQiTqSS0xeGPdqrjBvvnj80qi2puGlfBCRZuXo2cJqurmC7SizF6QFCVIhhN3hvK4asyDoSU+ubrSmKh6rcMlu7F2mMis4MA8S8Ng+S8tFn0QOtrmGwcd26wHVzLOJIoQ6gC0rtMlo8Nh6myvtw6UVM+3OhZ3Y4tgvUSOMAq+jaYiZjQNIM2Iig9zc8iH/TDsC5AIBzDfhc1WpARmve745syIIMbO1BtmMWJopwZB7HBvTxs2VkyD/TRuzwEc7sZmbAdRKT6PB0tW5ZjafIW9Ka5xqwKOi4ZODLVUZtvUfvM5fw+ts0wLV7H3yvGj9euDlPEPhpNRExdLPCJGxxNbRVO4YKa+EGfEbW53Xwus6bhb0RKWn4RDtHrg0ftfW3bjccWtGgK8kJG2LB2F7vMQ2X7GSJi6s0RooDGlEKMzHdiJYYbtHqZwZdV3QFJ+rPVbQEvEczfTRWg4ddiI01F6/1NbZWOn4XUaBriUsvOzwZBh6IrN7MwsK1aHoEApIMEKCREMONi0bcqVW+TLyPnyOc+Fzr4yHBtD6DFoSQFHo1PyQLVAP75TaghjPPY6N+5Y7fpmRYMcqdH8/hX0MPtr8y5hdOfqxM/7gh2wFkWXroU4fyRpruTL+OWxzOuFlq/WSEm1Nn6R5CbX7Rq8FSm2b9i53XJrxABspgDAg6XNlxTp0H8usnVEiGjy2Vr7MXpC2A4VGADaapn8+hYhx71HSmFgiPoyQESizNzdV2B/YVZJGG5AZBTLe6WhsCH7XzfC53pdHs8RTOyg6hAISaA78tLITZgjDJsf34XVPhdf9DkVI0g4JRjRATBPw2PbRcmWKm2oqPd/6UzAz5FBa2q6iqdx2N19mnyMA67F/ypXZt9d77M0NpRccpi+d07WAx1Hb/4xjdrDcdnewIgVbXZgtsJXeQsBCwELAQsBCYBAhQP8neCbDMN9hGOZ7DMOcwzDMTwa+P2cYRvql8Sb6Sq/Rufg8paU8KC/K8/T8r0KVykGgEEgEmp1hGPrzYPrvwNEMw4xlGIb+xeaWBH/pHfQueie9m2QgWUgmko1kHJQf2oKbCskyDEPD2NcnGOh4EkmykswkO5UhY0miP/y9YKD2TcggArTIpLKQRp3PMJnzp8Y/yjAt0CJB6f51DMNQWdP+Q22xUiEG23Uqa9p/aEN6N8MwtA/6YCNALA+VjcqY+s33dVQHMubnMQxDsa/J8JpEsBJ1pDJQWahM6fNfIToIkT/6XYm3RW7m1QzD0N+ZJgpAo/mSTCQbySh6VyT7afOh2kZ+/08HOnfUF6Dm4JKBGklRgmMYhrmGYZhxA9pGtVX8yoEXr4tHSkNpKQ/Ki2o55U3voHdRh5LeTTKkvOb/H2H1zf1qHpZOAAAAAElFTkSuQmCC;" vertex="1" parent="1">
          <mxGeometry x="475" y="455" width="50" height="50" as="geometry" />
        </mxCell>
        <mxCell id="Y49z8xyqxoSdH-bz4BjA-36" value="" style="shape=image;verticalLabelPosition=bottom;labelBackgroundColor=default;verticalAlign=top;aspect=fixed;imageAspect=0;image=data:image/png,iVBORw0KGgoAAAANSUhEUgAAAGQAAABkCAYAAABw4pVUAAAAAXNSR0IArs4c6QAADidJREFUeAHtXQt0FNUZntZq7WlP7cuetqf26O7izi5YH4gCUkXqA0UrilRUyIu8lNYWRT3taVVo1R4ftVrfVeShKFHI5sEr4RFEIkJ2lzfJzmxCEgREDiGaEEhCvp5/kllmZ3dmdmb2GWbP2TOzM3Pv/Pf77n///97737sMY30sBCwELAQsBCwELAQsBCwELAQsBCwELAQsBCwELAQsBCwELAQsBCwELASShgCCORehISsfXPZz4HLLwRVsBVfQAL5oP7jio+CKjoIv3C9cC073C8/wWc+ifkoedt81LGmCDtYXgcs9F9y0mQjkVIIv+hLB+2D4u2ciUMe2wudcAD+bDf8lPxisuMW1XFg39luoz5oKPr8aweIThgmQk7djLOBzSb9d8LsWw++agBLmjLgWYjBkhqacs8HlzgRf1BI3EkRSuOmAb6iUjPDzOlcj/K4/Yd35Zw8GLE2VAWC+AT7nYfCFh+JOhEhIpHaEExLSHGcL/GwOyWSqUJmaGHzuaHCF2xNGBBGye4IC+GHNl/yZLfA5L89UXHXLLdgJLu8V8MW9CSODLwB2jpMDreM32wM/+/igty/g7z8PXMFnUYloeghoqwJOdgF9J4AjFbF5VQQ+lwcEsoD6ycDO6wD/RTrAV9WWdfA5f6G71mVCAjTc+1twhW2RZMwADn8InOxExGffM6dIIeNcP6kf8O2jga2Xxgt0jXzYA4OuCUMg5w7wxZ0RZLTOAY43RfAQunDwTWD3LcC2KzRAU63l5tN62Q54h47PhIqvKSMacgrAF/VEkHFofn/TFEJfdtLbDmwfYx7MkBdlkjQvewI+dpJmgdP5gQHN6A4nYwbQvl6Gvuxnew2wa3z6kBEile2Gl70xnTFXlA3108aBLzoWRkbjA0CHX4a+5GdXAAhM1UXEyc0XoXneFAReno6vqn6jK62s9x5jWrYTPnaUYsHT8Qbqp10QYcAb/wgc2y1BX3La1wvsf1m3d9RdeylK73gPb13+sfB9Z+QaNL19T4zAmmnC2APY7P5ZOmIfIRMw+Qxw+VvCNCM4A+jwShiQnPYc6XdbQ81C7ED55jwcIkMk5d1rl6GvTmWoxMB7FDRpXUb0U0CdPnHYQjySTYj26eKBmIc2IomqLngpghAi5uvqZDkD7GMRNTKdLmBP1qiIHjh5U9E+nTuAbSNNNS+rcl+NSkj7ymtM5augEVHyZHvgG3pxOnEQkqW/qSrcEaYdLbOBvu5IOro4YPuoKAWM1AI1cFJPiAvwuzak5YCkMGorNlHCcQZwvDGSjJ7DppopIog8q0NLbsbSiYuiasjmv/0VrQvvxIlPLjNNulqFkNzLCtXMdDjBrslngSv8Ikw7DpdEktHXo9utFQtNhrp53l2ozn8R5E2JRlztOPeKGlTePRd7XigCeWRiXvE/Oluwy31WOnAhyAAu69EwMmigsLcjkhBybQ14OV98NAGeSQtjIkGJoPljVmHb038WtMuIDJppvO7ctCBEGE7nC1vDCGlbGUnGsXrd/QwCYddz9+PtETWmyJCSVDZ5Pro+HmGoYmiQwhMWKScFDdOmhZFB9uP43khCAtm6Qdj65INxI0JKSu2sObpl0SBjID/3TaknRAhIkEWEfLUxnJCja3QD0DLv93j7ivhphpQQcgZiA1if14c616KUEoI9t/8YfJTokKZZQIcP6P0aaN8A0PyFDttxcsswlNy0RFs7RqxHyc0fYWX2a1hT/IJwrJgyFwuuXqWadkXWG7rk0SF7V0pDjMBlPRjRXEldXyHiw6278NxrOaqAkk359NHH8fXqqxTzbls2Dlv+/he8f31ZWF6kdfvevUMxnQ7wo+fhdU9NmZYgMH2ZKiE0uaRDM8RnqbZLm5iw8xHr0fhm7CPC5C5/vmgiNs6ag5o/PIODJbcakkmUTfPoZ+emjhCt8B2DM33yWi0lhPohmqAYqATxy5NtTgkhQqyttHmSnwvNlU6jSEB63Zg7cq2ihux8dkZaEtLndaF9gxMHq4egtco2JOmkCIHPchKkvykgwUBNPVk3FG+NWK9IiPeJRw3la0SWWNMQEXy5HQ2l/d+mSvuU5BPC5Tyvaj8oHMcAIZRGzUtaPH4JTmxM2hiVZhkOrbkwRIRISLDC8UQKCMmrUCVEp6srJY9cV6ndkJ9TP2L/oomaYEnzTMR52/pIMoiUQJn9/eQTEizwqxKy9RLDgEWbCZSTQr8/uMEjeE/869lJmk8/ZRN761zgyk41U6J2CIR4HLXJJ4Qv4BQJ4YsNk0E1+VjNlXhn1GpVLYlG0HvjlqEq77/w/+MhHPjgtsQNJPpcOFITXTsEQpbadqaAkKL9yoQUmCKESNn+rwd0EyInaf6Yaqwu/I8wNxLvefZ9K4dE2I6Qlnjse5NPSNSw0IExLYq1NWjQQ+m8bmyY+ZRpUkSSyO4cWBy/TmFTpUOZkKW2L9OLEAp8NkvIQHrSlHmj9TdfIhHSIw2bbHtqZlxkC1akGyG0wFLa75CeUxR6nAihfCiK5JMHnwQ1QVKAjZ4TyWblUzLo/c2WLQVNFp+vbNRN9EHUgOquvUwYx6Km7MMJH6p2INXIoqndIxXG+0kkY8heDHQGpb8DHvuOFDRZ06O7vbReI37rM1Rr8vENl6Nl/mR4n3gEK7JfB03TqhEhvbe2+N+qeatWjM2sBiGpcHs5hY6hqZVLp/x8NUCU7tGwC7m7tY/MVh0PI2LmXbXasFvcWetUJyQlHUNawC+1G3RubE2f4ZqqRAxdb1t+LahfItUK+fmXpcYi7JV66GKzxXkcs5PfZNXfMz1ECI3smggJVQPWzL36FwtUCWldYMz52F+l0gcptYNPyeDi7ruGgXZIEIhISnCzbk067LlRnZCFd+rOkyqIdGRX1ArpMbjUdmHSNYReCB/bbKYGa6XtrjU+HkZ5N711ryohhz036Caka5OGQS+1f54SMvoJcS7QAtXIfWr/PZMWCGAuue0DbH1ypu6w0J5PL1YMNSVbQmNlvZ9drJuQL1ZrNFfl9tRFnggbucSxA0jkUcTJR7eWRNRs6q2vve95NP7vXnSuVQ7U7vMOxb6Fk8IW8siNOf1elfeKbjJoVlCrueLKHfmp05A62znwuY4Z0QKlNBREHQ1A+TWady+7cyGWT3tDCAEigMsmL4i5L0LusZIMStdpZlBqK+Tn9R57V3Plr36YMkKEZot21YmjllCIjhz8eP8mTTMis+qAYqkdnMdWmlIyBEK87C1GCqeUhuJu519VlTBSyDb1bNJvO7S0g7SF99hvTz0hJcwZ8LIBJYCNXOdfyzY0QaWlSTR5ReNhemU6WeeC6uiuMJ5l25s2aw7hd+XrLaTW80dXjBXmQ2JdC6JGBvXY97xYZHgxqJZnRdoRrLTdl3LtEAVA3fAz4WP3aoFs5P7xDcMFMCkeV8+8CM190NKD/sU6+rVClLVjo7ohHzDsn3PLHd8W8UiLI7zuXLEQiTqSS0xeGPdqrjBvvnj80qi2puGlfBCRZuXo2cJqurmC7SizF6QFCVIhhN3hvK4asyDoSU+ubrSmKh6rcMlu7F2mMis4MA8S8Ng+S8tFn0QOtrmGwcd26wHVzLOJIoQ6gC0rtMlo8Nh6myvtw6UVM+3OhZ3Y4tgvUSOMAq+jaYiZjQNIM2Iig9zc8iH/TDsC5AIBzDfhc1WpARmve745syIIMbO1BtmMWJopwZB7HBvTxs2VkyD/TRuzwEc7sZmbAdRKT6PB0tW5ZjafIW9Ka5xqwKOi4ZODLVUZtvUfvM5fw+ts0wLV7H3yvGj9euDlPEPhpNRExdLPCJGxxNbRVO4YKa+EGfEbW53Xwus6bhb0RKWn4RDtHrg0ftfW3bjccWtGgK8kJG2LB2F7vMQ2X7GSJi6s0RooDGlEKMzHdiJYYbtHqZwZdV3QFJ+rPVbQEvEczfTRWg4ddiI01F6/1NbZWOn4XUaBriUsvOzwZBh6IrN7MwsK1aHoEApIMEKCREMONi0bcqVW+TLyPnyOc+Fzr4yHBtD6DFoSQFHo1PyQLVAP75TaghjPPY6N+5Y7fpmRYMcqdH8/hX0MPtr8y5hdOfqxM/7gh2wFkWXroU4fyRpruTL+OWxzOuFlq/WSEm1Nn6R5CbX7Rq8FSm2b9i53XJrxABspgDAg6XNlxTp0H8usnVEiGjy2Vr7MXpC2A4VGADaapn8+hYhx71HSmFgiPoyQESizNzdV2B/YVZJGG5AZBTLe6WhsCH7XzfC53pdHs8RTOyg6hAISaA78tLITZgjDJsf34XVPhdf9DkVI0g4JRjRATBPw2PbRcmWKm2oqPd/6UzAz5FBa2q6iqdx2N19mnyMA67F/ypXZt9d77M0NpRccpi+d07WAx1Hb/4xjdrDcdnewIgVbXZgtsJXeQsBCwELAQsBCYBAhQP8neCbDMN9hGOZ7DMOcwzDMTwa+P2cYRvql8Sb6Sq/Rufg8paU8KC/K8/T8r0KVykGgEEgEmp1hGPrzYPrvwNEMw4xlGIb+xeaWBH/pHfQueie9m2QgWUgmko1kHJQf2oKbCskyDEPD2NcnGOh4EkmykswkO5UhY0miP/y9YKD2TcggArTIpLKQRp3PMJnzp8Y/yjAt0CJB6f51DMNQWdP+Q22xUiEG23Uqa9p/aEN6N8MwtA/6YCNALA+VjcqY+s33dVQHMubnMQxDsa/J8JpEsBJ1pDJQWahM6fNfIToIkT/6XYm3RW7m1QzD0N+ZJgpAo/mSTCQbySh6VyT7afOh2kZ+/08HOnfUF6Dm4JKBGklRgmMYhrmGYZhxA9pGtVX8yoEXr4tHSkNpKQ/Ki2o55U3voHdRh5LeTTKkvOb/H2H1zf1qHpZOAAAAAElFTkSuQmCC;" vertex="1" parent="1">
          <mxGeometry x="555" y="532.5" width="50" height="50" as="geometry" />
        </mxCell>
      </root>
    </mxGraphModel>
  </diagram>
</mxfile>
